<svg width="26" height="26" viewBox="0 0 26 26" fill="none" xmlns="http://www.w3.org/2000/svg">
<path fill-rule="evenodd" clip-rule="evenodd" d="M24.6665 15.6483C25.2188 15.6483 25.6665 15.2006 25.6665 14.6483L25.6665 11.4015C25.6665 10.8492 25.2188 10.4015 24.6665 10.4015L21.4197 10.4015C20.8675 10.4015 20.4197 10.8492 20.4197 11.4015L20.4197 14.6483C20.4197 15.2006 20.8675 15.6483 21.4197 15.6483L24.6665 15.6483ZM11.2098 26C10.6575 26 10.2098 25.5523 10.2098 25L10.2098 21.895C10.2098 21.3428 9.76211 20.895 9.20983 20.895L6.10487 20.895C5.55259 20.895 5.10487 20.4473 5.10487 19.895L5.10487 16.7901C5.10487 16.2378 4.65716 15.7901 4.10487 15.7901L0.999917 15.7901C0.447632 15.7901 -8.34575e-05 15.3424 -8.34333e-05 14.7901L-8.32914e-05 11.5433C-8.32673e-05 10.991 0.447633 10.5433 0.999919 10.5433L4.10487 10.5433C4.65716 10.5433 5.10487 10.0956 5.10487 9.54332L5.10487 6.43837C5.10487 5.88608 5.55259 5.43837 6.10488 5.43837L9.20983 5.43837C9.76212 5.43837 10.2098 4.99065 10.2098 4.43837L10.2098 1.33341C10.2098 0.781129 10.6575 0.333413 11.2098 0.333413L14.4566 0.333414C15.0089 0.333414 15.4566 0.781127 15.4566 1.33341L15.4566 4.58017C15.4566 5.13246 15.0089 5.58017 14.4566 5.58017L11.3516 5.58017C10.7993 5.58017 10.3516 6.02789 10.3516 6.58017L10.3516 9.4015C10.3516 9.95379 10.7993 10.4015 11.3516 10.4015L14.3964 10.4015C14.9486 10.4015 15.3964 10.8492 15.3964 11.4015L15.3964 14.6483C15.3964 15.2006 14.9486 15.6483 14.3964 15.6483L11.1496 15.6483C10.5973 15.6483 10.1496 15.2005 10.1496 14.6483L10.1496 11.6851C10.1496 11.1328 9.70188 10.6851 9.14959 10.6851L6.24668 10.6851C5.69439 10.6851 5.24668 11.1328 5.24668 11.6851L5.24668 14.6483C5.24668 15.2006 5.69439 15.6483 6.24668 15.6483L9.35163 15.6483C9.90392 15.6483 10.3516 16.096 10.3516 16.6483L10.3516 19.7532C10.3516 20.3055 10.7994 20.7532 11.3516 20.7532L14.4566 20.7532C15.0089 20.7532 15.4566 21.201 15.4566 21.7532L15.4566 25C15.4566 25.5523 15.0089 26 14.4566 26L11.2098 26Z" fill="black"/>
</svg>
