<svg width="15" height="14" viewBox="0 0 15 14" fill="none" xmlns="http://www.w3.org/2000/svg">
<path fill-rule="evenodd" clip-rule="evenodd" d="M0.2609 6.73138L3.71419 8.0161L5.05913 12.3001C5.07862 12.3635 5.11347 12.4211 5.16063 12.4679C5.20779 12.5146 5.26579 12.5491 5.32951 12.5682C5.39322 12.5873 5.46068 12.5905 5.52592 12.5775C5.59116 12.5644 5.65222 12.5355 5.7036 12.4934L7.6299 10.9296C7.72814 10.8498 7.85011 10.8046 7.97681 10.8011C8.10351 10.7975 8.22782 10.8358 8.33038 10.91L11.8047 13.4222C11.8597 13.4622 11.9238 13.4877 11.9913 13.4966C12.0587 13.5054 12.1272 13.4972 12.1907 13.4727C12.2541 13.4483 12.3104 13.4084 12.3543 13.3566C12.3983 13.3049 12.4285 13.243 12.4422 13.1766L14.9919 0.987499C15.0064 0.916086 15.0014 0.842103 14.9774 0.773282C14.9534 0.704461 14.9112 0.643326 14.8553 0.596264C14.7995 0.549201 14.7321 0.517938 14.66 0.505741C14.5879 0.493544 14.5138 0.500861 14.4455 0.526927L0.253888 5.97633C0.178234 6.00702 0.113609 6.05965 0.0683376 6.12739C0.0230659 6.19512 -0.000737516 6.27485 1.74164e-05 6.35622C0.000772349 6.4376 0.0260067 6.51688 0.0725275 6.58377C0.119048 6.65066 0.184689 6.70209 0.2609 6.73138ZM4.84203 7.33222L11.5945 3.18917C11.6194 3.17263 11.6497 3.16604 11.6793 3.17071C11.7088 3.17538 11.7355 3.19097 11.7541 3.21437C11.7726 3.23777 11.7816 3.26727 11.7793 3.297C11.777 3.32673 11.7636 3.3545 11.7417 3.37479L6.16585 8.53529C5.97052 8.71782 5.84234 8.96034 5.80168 9.22405L5.61253 10.6253C5.60791 10.6648 5.58955 10.7015 5.56072 10.729C5.53188 10.7565 5.49433 10.7731 5.45452 10.776C5.4147 10.7789 5.37512 10.7679 5.34259 10.7448C5.31005 10.7218 5.28665 10.6881 5.27632 10.6497L4.54079 8.09426C4.50077 7.95189 4.50856 7.8004 4.56293 7.66284C4.61731 7.52528 4.71532 7.40918 4.84203 7.33222Z" fill="#DBFF00"/>
</svg>
