<svg width="18" height="11" viewBox="0 0 18 11" fill="none" xmlns="http://www.w3.org/2000/svg">
<path fill-rule="evenodd" clip-rule="evenodd" d="M0 1C0 0.447715 0.447715 0 1 0H2.27273C2.82501 0 3.27273 0.447715 3.27273 1V2.27273C3.27273 2.36913 3.35815 2.45455 3.45455 2.45455H4.72727C5.27956 2.45455 5.72727 2.90226 5.72727 3.45455V4.72727C5.72727 4.82367 5.81269 4.90909 5.90909 4.90909H7.18182C7.7341 4.90909 8.18182 5.35681 8.18182 5.90909V7.18182C8.18182 7.27822 8.26724 7.36364 8.36364 7.36364H9.63636C9.73276 7.36364 9.81818 7.27822 9.81818 7.18182V5.90909C9.81818 5.35681 10.2659 4.90909 10.8182 4.90909H12.0909C12.6432 4.90909 13.0909 5.35681 13.0909 5.90909V7.18182C13.0909 7.7341 12.6432 8.18182 12.0909 8.18182H10.8182C10.7218 8.18182 10.6364 8.26724 10.6364 8.36364V9.63636C10.6364 10.1886 10.1886 10.6364 9.63636 10.6364H8.36364C7.81135 10.6364 7.36364 10.1886 7.36364 9.63636V8.36364C7.36364 8.26724 7.27822 8.18182 7.18182 8.18182H5.90909C5.35681 8.18182 4.90909 7.7341 4.90909 7.18182V5.90909C4.90909 5.81269 4.82367 5.72727 4.72727 5.72727H3.45455C2.90226 5.72727 2.45455 5.27956 2.45455 4.72727V3.45455C2.45455 3.35815 2.36913 3.27273 2.27273 3.27273H1C0.447715 3.27273 0 2.82501 0 2.27273V1ZM15.7273 0C15.175 0 14.7273 0.447715 14.7273 1V2.27273C14.7273 2.82501 15.175 3.27273 15.7273 3.27273H17C17.5523 3.27273 18 2.82501 18 2.27273V1C18 0.447715 17.5523 0 17 0H15.7273Z" fill="#DBFF00"/>
</svg>
