<svg width="66" height="108" viewBox="0 0 66 108" fill="none" xmlns="http://www.w3.org/2000/svg">
<path fill-rule="evenodd" clip-rule="evenodd" d="M43.6243 5C43.6243 2.23858 45.8629 0 48.6243 0H60.4365C63.1979 0 65.4365 2.23858 65.4365 5.00001V16.8122C65.4365 19.5736 63.1979 21.8122 60.4365 21.8122H48.6243C45.8629 21.8122 43.6243 24.0507 43.6243 26.8122V37.6961C43.6243 40.4576 45.8629 42.6961 48.6243 42.6961H60.4365C63.1979 42.6961 65.4365 44.9347 65.4365 47.6961V59.5083C65.4365 62.2697 63.1979 64.5083 60.4365 64.5083H48.6243C45.8629 64.5083 43.6243 66.7469 43.6243 69.5083V80.8564C43.6243 83.6178 41.3857 85.8564 38.6243 85.8564H26.8122C24.0507 85.8564 21.8122 88.0949 21.8122 90.8564V102.204C21.8122 104.966 19.5736 107.204 16.8121 107.204H5C2.23858 107.204 0 104.966 0 102.204V90.3923C0 87.6308 2.23858 85.3923 5.00001 85.3923H16.8122C19.5736 85.3923 21.8122 83.1537 21.8122 80.3923V69.5083C21.8122 66.7469 19.5736 64.5083 16.8121 64.5083H5C2.23858 64.5083 0 62.2697 0 59.5083V47.6961C0 44.9347 2.23858 42.6961 5.00001 42.6961H16.8122C19.5736 42.6961 21.8122 40.4576 21.8122 37.6961V26.3481C21.8122 23.5866 24.0507 21.3481 26.8122 21.3481H38.6243C41.3857 21.3481 43.6243 19.1095 43.6243 16.3481V5ZM38.6243 64.0442C41.3857 64.0442 43.6243 61.8056 43.6243 59.0442V48.1602C43.6243 45.3988 41.3857 43.1602 38.6243 43.1602H26.8122C24.0507 43.1602 21.8122 45.3988 21.8122 48.1602V59.0442C21.8122 61.8056 24.0507 64.0442 26.8122 64.0442H38.6243Z" fill="#DBFF00"/>
</svg>
