<svg width="108" height="87" viewBox="0 0 108 87" fill="none" xmlns="http://www.w3.org/2000/svg">
<path fill-rule="evenodd" clip-rule="evenodd" d="M102.205 64.9724C104.966 64.9724 107.205 67.211 107.205 69.9724L107.205 81.7845C107.205 84.546 104.966 86.7845 102.205 86.7845L90.3924 86.7845C87.631 86.7845 85.3924 84.546 85.3924 81.7845L85.3924 69.9724C85.3924 67.211 83.1539 64.9724 80.3924 64.9724L69.5085 64.9724C66.747 64.9724 64.5085 67.211 64.5085 69.9724L64.5085 81.7845C64.5085 84.5459 62.2699 86.7845 59.5085 86.7845L47.6963 86.7845C44.9349 86.7845 42.6963 84.5459 42.6963 81.7845L42.6963 69.9724C42.6963 67.2109 40.4577 64.9724 37.6963 64.9724L26.3482 64.9724C23.5868 64.9724 21.3482 62.7338 21.3482 59.9724L21.3482 48.1602C21.3482 45.3988 19.1097 43.1602 16.3482 43.1602L5.00017 43.1602C2.23874 43.1602 0.000166058 40.9216 0.000166179 38.1602L0.000166695 26.3481C0.000166816 23.5866 2.23875 21.3481 5.00017 21.3481L16.8123 21.3481C19.5737 21.3481 21.8123 23.5866 21.8123 26.3481L21.8123 38.1602C21.8123 40.9216 24.0509 43.1602 26.8123 43.1602L37.6963 43.1602C40.4577 43.1602 42.6963 40.9216 42.6963 38.1602L42.6963 26.3481C42.6963 23.5866 44.9349 21.3481 47.6963 21.3481L59.5085 21.3481C62.2699 21.3481 64.5085 19.1095 64.5085 16.3481L64.5085 5C64.5085 2.23857 66.747 -1.76846e-06 69.5085 -1.64775e-06L81.3206 -1.13142e-06C84.082 -1.01072e-06 86.3206 2.23858 86.3206 5L86.3206 16.8122C86.3206 19.5736 84.082 21.8122 81.3206 21.8122L69.5085 21.8122C66.747 21.8122 64.5085 24.0507 64.5085 26.8121L64.5085 38.1602C64.5085 40.9216 66.747 43.1602 69.5085 43.1602L80.8565 43.1602C83.6179 43.1602 85.8565 45.3988 85.8565 48.1602L85.8565 59.9724C85.8565 62.7338 88.0951 64.9724 90.8565 64.9724L102.205 64.9724ZM43.1604 59.9724C43.1604 62.7338 45.399 64.9724 48.1604 64.9724L59.0444 64.9724C61.8058 64.9724 64.0444 62.7338 64.0444 59.9724L64.0444 48.1602C64.0444 45.3988 61.8058 43.1602 59.0444 43.1602L48.1604 43.1602C45.399 43.1602 43.1604 45.3988 43.1604 48.1602L43.1604 59.9724Z" fill="#DBFF00"/>
</svg>
