<svg width="66" height="109" viewBox="0 0 66 109" fill="none" xmlns="http://www.w3.org/2000/svg">
<path fill-rule="evenodd" clip-rule="evenodd" d="M65.4365 5.82861C65.4365 3.06719 63.1979 0.828613 60.4365 0.828613H48.6243C45.8629 0.828613 43.6243 3.06719 43.6243 5.82862V17.6408C43.6243 20.4022 45.8629 22.6408 48.6243 22.6408H60.4365C63.1979 22.6408 65.4365 20.4022 65.4365 17.6408V5.82861ZM21.8122 48.5247C21.8122 45.7633 19.5736 43.5247 16.8121 43.5247H5C2.23858 43.5247 0 45.7633 0 48.5247V60.3369C0 63.0983 2.23858 65.3369 5.00001 65.3369H16.8122C19.5736 65.3369 21.8122 67.5755 21.8122 70.3369V81.2209C21.8122 83.9823 19.5736 86.2209 16.8121 86.2209H5C2.23858 86.2209 0 88.4595 0 91.2209V103.033C0 105.794 2.23858 108.033 5.00001 108.033H16.8122C19.5736 108.033 21.8122 105.794 21.8122 103.033V91.685C21.8122 88.9235 24.0507 86.685 26.8122 86.685H38.6243C41.3857 86.685 43.6243 84.4464 43.6243 81.685V69.8728C43.6243 67.1114 41.3857 64.8728 38.6243 64.8728H26.8122C24.0507 64.8728 21.8122 62.6342 21.8122 59.8728V48.5247Z" fill="#DBFF00"/>
</svg>
