<svg width="110" height="108" viewBox="0 0 110 108" fill="none" xmlns="http://www.w3.org/2000/svg">
<path fill-rule="evenodd" clip-rule="evenodd" d="M65.4365 5C65.4365 2.23858 67.675 0 70.4365 0H82.2486C85.01 0 87.2486 2.23857 87.2486 5L87.2486 16.3481C87.2486 19.1095 89.4872 21.3481 92.2486 21.3481H104.061C106.822 21.3481 109.061 23.5866 109.061 26.3481V38.1602C109.061 40.9216 106.822 43.1602 104.061 43.1602H92.2486C89.4872 43.1602 87.2486 40.9216 87.2486 38.1602L87.2486 26.8122C87.2486 24.0507 85.01 21.8122 82.2486 21.8122H70.4365C67.675 21.8122 65.4365 19.5736 65.4365 16.8121V5ZM21.8122 37.6961C21.8122 40.4576 24.0507 42.6961 26.8122 42.6961H38.6243C41.3857 42.6961 43.6243 44.9347 43.6243 47.6961V59.0442C43.6243 61.8056 45.8629 64.0442 48.6243 64.0442H60.4365C63.1979 64.0442 65.4365 66.2828 65.4365 69.0442V80.8564C65.4365 83.6178 63.1979 85.8564 60.4365 85.8564H48.6243C45.8629 85.8564 43.6243 88.0949 43.6243 90.8564V102.204C43.6243 104.966 41.3857 107.204 38.6243 107.204H26.8122C24.0507 107.204 21.8122 104.966 21.8122 102.204V90.3923C21.8122 87.6308 24.0507 85.3923 26.8122 85.3923H38.6243C41.3857 85.3923 43.6243 83.1537 43.6243 80.3923V69.5083C43.6243 66.7469 41.3857 64.5083 38.6243 64.5083H26.8122C24.0507 64.5083 21.8122 62.2697 21.8122 59.5083V50.4807C21.8122 47.7192 19.5736 45.4807 16.8121 45.4807H5C2.23858 45.4807 0 43.2421 0 40.4807V28.6685C0 25.9071 2.23858 23.6685 5.00001 23.6685H16.8122C19.5736 23.6685 21.8122 25.9071 21.8122 28.6685V37.6961ZM87.2486 69.0442C87.2486 66.2828 89.4872 64.0442 92.2486 64.0442H104.061C106.822 64.0442 109.061 66.2828 109.061 69.0442V80.8564C109.061 83.6178 106.822 85.8564 104.061 85.8564H92.2486C89.4872 85.8564 87.2486 83.6178 87.2486 80.8563V69.0442Z" fill="white"/>
</svg>
