<svg width="35" height="22" viewBox="0 0 35 22" fill="none" xmlns="http://www.w3.org/2000/svg">
<path fill-rule="evenodd" clip-rule="evenodd" d="M17.4998 5.44357C10.9678 5.44357 5.65339 10.5609 5.65339 16.8495C5.65339 17.5297 5.08114 18.0807 4.37467 18.0807C3.66918 18.0807 3.0964 17.5297 3.0964 16.8495C3.0964 9.20279 9.55779 2.98164 17.4998 2.98164C19.2074 2.98164 20.8793 3.26719 22.4685 3.82937C23.1313 4.06397 23.4706 4.77097 23.2278 5.40915C22.9842 6.04733 22.2489 6.3744 21.5861 6.13981C20.281 5.67816 18.9057 5.44357 17.4998 5.44357ZM17.4998 0C7.85061 0 0 7.5596 0 16.8495C0 18.1907 0.164337 19.5256 0.488753 20.8171C0.666018 21.525 1.29363 22 2.04923 22H32.9512C33.7069 22 34.3344 21.525 34.5117 20.8171C34.8361 19.5256 35 18.1907 35 16.8495C35 7.5596 27.1495 0 17.4998 0ZM13.8939 16.8495C13.8939 18.7649 15.5119 20.3219 17.4999 20.3219C20.1329 20.3219 21.8553 17.6919 20.7875 15.4257L27.6851 8.78405C28.1846 8.3041 28.1846 7.52475 27.6851 7.04385C27.1857 6.56294 26.3762 6.56294 25.8768 7.04385L18.9796 13.6846C16.6085 12.6534 13.8939 14.3272 13.8939 16.8495Z" fill="white"/>
</svg>
