<svg width="23" height="28" viewBox="0 0 23 28" fill="none" xmlns="http://www.w3.org/2000/svg">
<path d="M22.3515 13.2841C21.9802 12.9129 21.5296 12.7274 20.9991 12.7274H20.3631V8.90899C20.3631 6.46963 19.4883 4.37513 17.7382 2.62512C15.9883 0.875039 13.894 0 11.4543 0C9.01465 0 6.91994 0.875039 5.17014 2.62505C3.42006 4.37513 2.5453 6.46956 2.5453 8.90899V12.7274H1.90902C1.3789 12.7274 0.928044 12.9129 0.556799 13.2841C0.185553 13.6551 0 14.1059 0 14.6366V26.091C0 26.6211 0.185623 27.0721 0.556799 27.4434C0.928044 27.8143 1.3789 28 1.90902 28H20.9995C21.5301 28 21.9806 27.8145 22.352 27.4434C22.7229 27.0721 22.9088 26.6211 22.9088 26.091V14.6363C22.9091 14.1061 22.7229 13.6554 22.3515 13.2841ZM16.5451 12.7274H6.36348V8.90899C6.36348 7.50376 6.86073 6.30386 7.85501 5.30972C8.84944 4.31543 10.0491 3.8184 11.4545 3.8184C12.86 3.8184 14.0594 4.31536 15.0539 5.30972C16.0479 6.30379 16.5451 7.50376 16.5451 8.90899V12.7274Z" fill="#DBFF00"/>
</svg>
