<svg width="29" height="35" viewBox="0 0 29 35" fill="none" xmlns="http://www.w3.org/2000/svg">
<path d="M27.8637 4.77537L15.0839 0.104568C14.8932 0.0348953 14.6967 0 14.4968 0C14.296 0 14.0967 0.0352478 13.9051 0.105626L1.17114 4.77643C0.48291 5.02927 0 5.69158 0 6.43319V17.4999C0 19.9707 0.786251 22.4418 2.28672 24.8444C3.43686 26.6859 5.03767 28.4917 7.01977 30.2122C10.3339 33.0886 13.6223 34.7479 13.7604 34.8171C14.0036 34.9389 14.2711 35 14.5354 35C14.7959 35 15.058 34.9408 15.2984 34.8224C15.4365 34.7542 18.7234 33.1208 22.0407 30.2558C24.0247 28.5423 25.6015 26.7364 26.7525 24.8885C28.2524 22.4807 29 19.9949 29 17.4999V6.43319C29.0001 5.6904 28.5535 5.02728 27.8637 4.77537ZM2.78401 17.4917V7.75087C2.78401 7.38007 3.00836 7.04885 3.35253 6.92243L14.1768 2.93391C14.2733 2.89854 14.3841 2.87246 14.5001 2.87246V17.5001H26.2986C26.2993 17.5001 26.3001 17.5159 26.3001 17.526C26.2978 20.7135 24.7127 23.8725 21.5897 26.9483C19.1507 29.3505 16.3798 31.0648 14.9545 31.8735C14.8224 31.9486 14.6162 31.984 14.5002 31.984C14.5002 31.7099 14.5002 17.652 14.5002 17.4955L2.78401 17.4917Z" fill="white"/>
</svg>
