<svg width="204" height="45" viewBox="0 0 204 45" fill="none" xmlns="http://www.w3.org/2000/svg">
<path d="M17.0293 29.9296C17.3392 29.9296 17.6068 30.0423 17.8181 30.2536C18.0294 30.4649 18.1421 30.7325 18.1421 31.0424V31.6903C18.1421 32.0002 18.0294 32.2678 17.8181 32.4791C17.6068 32.6904 17.3392 32.803 17.0293 32.803H16.3814C16.0715 32.803 15.8039 32.6904 15.5926 32.4791C15.3813 32.2678 15.2686 32.0002 15.2686 31.6903V31.5213C15.2686 31.4367 15.2404 31.31 15.1982 31.141C15.1559 30.9719 15.0573 30.7888 14.9306 30.6057C14.8038 30.4226 14.6066 30.2677 14.3672 30.1409C14.1277 30.0141 13.8037 29.9437 13.3952 29.9437H5.6623C5.08479 29.9437 4.66223 30.0705 4.39461 30.324C4.12698 30.5775 3.95796 30.8311 3.87345 31.0846V40.3529C3.95796 40.6064 4.12698 40.86 4.39461 41.1135C4.66223 41.367 5.08479 41.4938 5.6623 41.4938H13.3952C13.8037 41.4938 14.1277 41.4234 14.3672 41.2966C14.6066 41.1698 14.7897 41.0008 14.9306 40.8318C15.0714 40.6628 15.1559 40.4796 15.1982 40.2965C15.2404 40.1134 15.2686 40.0007 15.2686 39.9162V39.7472C15.2686 39.4373 15.3813 39.1697 15.5926 38.9584C15.8039 38.7471 16.0715 38.6344 16.3814 38.6344H17.0293C17.3392 38.6344 17.6068 38.7471 17.8181 38.9584C18.0294 39.1697 18.1421 39.4373 18.1421 39.7472V40.3951C18.1421 40.705 18.0294 40.9726 17.8181 41.1839C17.6068 41.3952 17.3392 41.5079 17.0293 41.5079H17.0011C16.7335 41.522 16.4941 41.5783 16.2828 41.6769C16.0997 41.7614 15.9166 41.8882 15.7334 42.0431C15.5503 42.1981 15.4236 42.4516 15.339 42.7897V43.2827C15.339 43.5925 15.2264 43.8602 15.001 44.0715C14.7756 44.2827 14.508 44.3954 14.1981 44.3954H4.87352C4.57772 44.3954 4.32418 44.2968 4.1129 44.0855C3.90161 43.8743 3.78893 43.6348 3.76076 43.3531V43.2545C3.74667 42.8319 3.64808 42.4939 3.46496 42.2544C3.28185 42.015 3.08465 41.8459 2.87337 41.7192C2.648 41.5924 2.36629 41.5079 2.05641 41.4938H2.11276C1.80288 41.4938 1.53525 41.3811 1.32397 41.1698C1.11268 40.9586 1 40.6909 1 40.381V31.0705C1 30.7606 1.11268 30.493 1.32397 30.2817C1.53525 30.0705 1.80288 29.9578 2.11276 29.9578H2.05641C2.36629 29.9437 2.648 29.8733 2.87337 29.7324C3.08465 29.6197 3.28185 29.4366 3.46496 29.1972C3.64808 28.9577 3.74667 28.6196 3.76076 28.1971V28.0985C3.78893 27.8168 3.9157 27.5773 4.1129 27.366C4.32418 27.1548 4.57772 27.0562 4.87352 27.0562H14.1981C14.508 27.0562 14.7756 27.1688 15.001 27.3801C15.2264 27.5914 15.339 27.859 15.339 28.1689V28.6619C15.4236 28.9718 15.5503 29.2253 15.7334 29.3944C15.9166 29.5634 16.0997 29.6901 16.2828 29.7747C16.4941 29.8733 16.7335 29.9296 17.0011 29.9437H17.0293V29.9296Z" fill="white"/>
<path d="M37.6927 30.2252C37.904 30.4365 38.0026 30.6901 38.0026 31V40.4091C38.0026 40.7049 37.904 40.9584 37.6927 41.1838C37.4814 41.3951 37.2279 41.5218 36.9321 41.55H36.9884C36.5236 41.55 36.1715 41.6345 35.9179 41.8176C35.6644 42.0007 35.4813 42.1979 35.3545 42.4092C35.2278 42.6768 35.1432 42.9726 35.1292 43.2966V43.2262C35.1292 43.5501 35.0165 43.8318 34.8052 44.0431C34.5939 44.2544 34.3263 44.3671 34.0164 44.3671H24.8045C24.4946 44.3671 24.227 44.2544 24.0157 44.0431C23.8044 43.8318 23.6917 43.5501 23.6917 43.2262V43.2966C23.6776 42.9726 23.6072 42.6628 23.4664 42.4092C23.3396 42.1979 23.1424 42.0007 22.9029 41.8176C22.6635 41.6345 22.2973 41.55 21.8184 41.55H21.8747C21.5789 41.5218 21.3254 41.3951 21.1141 41.1838C20.9028 40.9725 20.8042 40.719 20.8042 40.4091V31C20.8042 30.7042 20.9028 30.4506 21.1141 30.2252C21.3254 30.014 21.5789 29.8872 21.8747 29.859H21.8184C22.2973 29.859 22.6635 29.7745 22.9029 29.5914C23.1424 29.4083 23.3255 29.197 23.4664 28.9716C23.5931 28.7181 23.6776 28.4364 23.6917 28.0983V28.1688C23.6917 27.8448 23.8044 27.5631 24.0157 27.3518C24.227 27.1405 24.4946 27.0278 24.8045 27.0278H34.0164C34.3263 27.0278 34.5939 27.1405 34.8052 27.3518C35.0165 27.5631 35.1292 27.8448 35.1292 28.1688V28.0983C35.1432 28.4223 35.2137 28.7181 35.3545 28.9716C35.4813 29.197 35.6785 29.4083 35.9179 29.5914C36.1715 29.7745 36.5236 29.859 36.9884 29.859H36.9321C37.2279 29.8872 37.4814 30.014 37.6927 30.2252ZM35.1292 35.7045V31.7606C35.1292 31.169 35.0024 30.7323 34.7489 30.4647C34.4953 30.1971 34.2559 30.0281 34.0164 29.9435H24.8186C24.565 30.0281 24.3256 30.1971 24.0579 30.4647C23.8044 30.7323 23.6776 31.1549 23.6776 31.7606V39.6344C23.6776 40.226 23.8044 40.6626 24.0579 40.9302C24.3115 41.1979 24.565 41.3669 24.8186 41.4514H34.0164C34.2418 41.3669 34.4953 41.1979 34.7489 40.9302C35.0024 40.6626 35.1292 40.24 35.1292 39.6344V35.6904V35.7045Z" fill="white"/>
<path d="M56.6801 29.9298C56.99 29.9298 57.2576 30.0425 57.4689 30.2538C57.6801 30.465 57.7928 30.7327 57.7928 31.0425V31.6905C57.7928 32.0004 57.6801 32.268 57.4689 32.4793C57.2576 32.6905 56.99 32.8032 56.6801 32.8032H56.6519C56.3843 32.8173 56.1448 32.8737 55.9335 32.9723C55.7504 33.0568 55.5673 33.1835 55.3842 33.3385C55.2011 33.4934 55.0743 33.747 54.9898 34.085V34.1554C55.0462 34.5358 55.1588 34.8316 55.3419 35.0287C55.5251 35.2259 55.7082 35.3809 55.9054 35.4936C56.1307 35.6062 56.3984 35.6767 56.6801 35.6908C56.99 35.6908 57.2576 35.8034 57.4689 36.0147C57.6801 36.226 57.7928 36.4936 57.7928 36.8035V43.466H57.7647C57.6942 43.7195 57.5675 43.9308 57.3703 44.0998C57.1731 44.2688 56.9336 44.3533 56.6801 44.3533H56.0321C55.7645 44.3533 55.5391 44.2688 55.3419 44.0998C55.1447 43.9308 55.018 43.7195 54.9476 43.466H54.9194V37.0289C54.8912 36.9162 54.8349 36.7753 54.7644 36.6204C54.694 36.4655 54.5954 36.3246 54.4687 36.1838C54.3419 36.057 54.1588 35.9302 53.9475 35.8316C53.7362 35.733 53.4686 35.6767 53.1587 35.6767H45.3553C44.9609 35.6767 44.637 35.7471 44.3975 35.888C44.1581 36.0288 43.9749 36.1838 43.8482 36.3669C43.7214 36.55 43.6369 36.7331 43.5946 36.9021C43.5524 37.0711 43.5242 37.1979 43.5242 37.2824V43.2265C43.5242 43.5364 43.4115 43.804 43.2002 44.0153C42.989 44.2266 42.7213 44.3393 42.4114 44.3393H41.7635C41.4536 44.3393 41.186 44.2266 40.9747 44.0153C40.7634 43.804 40.6508 43.5364 40.6508 43.2265V31.282C40.6508 30.9017 40.7634 30.5777 40.9747 30.3101C41.186 30.0425 41.4536 29.9016 41.7635 29.9016H41.6931C42.003 29.8875 42.2847 29.8171 42.5382 29.6762C42.7495 29.5636 42.9467 29.3805 43.1298 29.141C43.3129 28.9016 43.4115 28.5635 43.4256 28.1409V28.0423C43.4538 27.7606 43.5805 27.5212 43.7777 27.3099C43.989 27.0986 44.2426 27 44.5384 27H53.863C54.1729 27 54.4405 27.1127 54.6658 27.324C54.8912 27.5353 55.0039 27.8029 55.0039 28.1128V28.6057C55.0884 28.9156 55.2152 29.1692 55.3983 29.3382C55.5814 29.5072 55.7645 29.634 55.9476 29.7185C56.1589 29.8171 56.3984 29.8734 56.666 29.8875H56.6942L56.6801 29.9298ZM53.0319 32.8032C53.3981 32.8032 53.6939 32.7469 53.9193 32.6483C54.1447 32.5356 54.3278 32.4088 54.4687 32.268C54.5954 32.113 54.694 31.9581 54.7644 31.8032C54.8349 31.6341 54.8771 31.4933 54.8912 31.3806C54.8771 31.2679 54.8349 31.1271 54.7644 30.958C54.694 30.789 54.5954 30.6341 54.4687 30.4932C54.3419 30.3524 54.1588 30.2115 53.9193 30.1129C53.6939 30.0002 53.3841 29.958 53.0319 29.958H45.299C45.0032 29.958 44.7496 30.0002 44.5243 30.0706C44.2989 30.1411 44.1299 30.2397 44.0031 30.3664C43.8763 30.4932 43.7637 30.62 43.6791 30.7468C43.5946 30.8735 43.5383 31.0144 43.5101 31.1411V31.6905C43.5946 31.944 43.7637 32.1835 44.0313 32.4511C44.2989 32.7046 44.7215 32.8314 45.299 32.8314H53.0319V32.8032Z" fill="white"/>
<path d="M76.4984 29.9299C76.8083 29.9299 77.0759 30.0425 77.2872 30.2538C77.4985 30.4651 77.6112 30.7327 77.6112 31.0426V31.6905C77.6112 32.0004 77.4985 32.2681 77.2872 32.4793C77.0759 32.6906 76.8083 32.8033 76.4984 32.8033H76.4703C76.2026 32.8174 75.9632 32.8737 75.7519 32.9723C75.5688 33.0568 75.3857 33.1836 75.2026 33.3386C75.0194 33.4935 74.8927 33.747 74.8082 34.0851V34.5781C74.8082 34.888 74.6955 35.1556 74.4701 35.3669C74.2448 35.5782 73.9771 35.6908 73.6672 35.6908H65.1737C64.7793 35.6908 64.4553 35.7613 64.2159 35.9021C63.9764 36.043 63.7933 36.1979 63.6665 36.381C63.5398 36.5641 63.4553 36.7472 63.413 36.9163C63.3707 37.0853 63.3426 37.2121 63.3426 37.2966V43.2407C63.3426 43.5505 63.2299 43.8182 63.0186 44.0295C62.8073 44.2407 62.5397 44.3534 62.2298 44.3534H61.5819C61.272 44.3534 61.0044 44.2407 60.7931 44.0295C60.5818 43.8182 60.4691 43.5505 60.4691 43.2407V31.2962C60.4691 30.9158 60.5818 30.5919 60.7931 30.3243C61.0044 30.0566 61.272 29.9158 61.5819 29.9158H61.5115C61.8213 29.9017 62.103 29.8313 62.3566 29.6904C62.5679 29.5777 62.7651 29.3946 62.9482 29.1552C63.1313 28.9157 63.2299 28.5776 63.244 28.1551V28.0565C63.2721 27.7748 63.3989 27.5353 63.5961 27.324C63.8074 27.1128 64.0609 27.0142 64.3567 27.0142H73.6813C73.9912 27.0142 74.2588 27.1268 74.4842 27.3381C74.7096 27.5494 74.8223 27.817 74.8223 28.1269V28.6199C74.9068 28.9298 75.0335 29.1833 75.2166 29.3523C75.3998 29.5214 75.5829 29.6482 75.766 29.7327C75.9773 29.8313 76.2167 29.8876 76.4843 29.9017H76.5125L76.4984 29.9299ZM72.8503 32.8033C73.2165 32.8033 73.5123 32.747 73.7377 32.6484C73.963 32.5357 74.1462 32.4089 74.287 32.268C74.4138 32.1131 74.5124 31.9582 74.5828 31.8032C74.6532 31.6342 74.6955 31.4934 74.7096 31.3807C74.6955 31.268 74.6532 31.1271 74.5828 30.9581C74.5124 30.7891 74.4138 30.6341 74.287 30.4933C74.1602 30.3524 73.9771 30.2116 73.7377 30.113C73.5123 30.0003 73.2024 29.958 72.8503 29.958H65.1173C64.8215 29.958 64.568 30.0003 64.3426 30.0707C64.1173 30.1411 63.9482 30.2397 63.8215 30.3665C63.6947 30.4933 63.582 30.6201 63.4975 30.7468C63.413 30.8736 63.3566 31.0144 63.3285 31.1412V31.6905C63.413 31.9441 63.582 32.1835 63.8496 32.4512C64.1173 32.7047 64.5398 32.8315 65.1173 32.8315H72.8503V32.8033Z" fill="white"/>
<path d="M97.1617 30.2252C97.373 30.4365 97.4716 30.6901 97.4716 31V40.4091C97.4716 40.7049 97.373 40.9584 97.1617 41.1838C96.9504 41.3951 96.6969 41.5218 96.4011 41.55H96.4574C95.9926 41.55 95.6405 41.6345 95.3869 41.8176C95.1334 42.0007 94.9503 42.1979 94.8235 42.4092C94.6967 42.6768 94.6122 42.9726 94.5982 43.2966V43.2262C94.5982 43.5501 94.4855 43.8318 94.2742 44.0431C94.0629 44.2544 93.7953 44.3671 93.4854 44.3671H84.2735C83.9636 44.3671 83.696 44.2544 83.4847 44.0431C83.2734 43.8318 83.1607 43.5501 83.1607 43.2262V43.2966C83.1466 42.9726 83.0762 42.6628 82.9354 42.4092C82.8086 42.1979 82.6114 42.0007 82.3719 41.8176C82.1325 41.6345 81.7662 41.55 81.2873 41.55H81.3437C81.0479 41.5218 80.7943 41.3951 80.5831 41.1838C80.3718 40.9725 80.2732 40.719 80.2732 40.4091V31C80.2732 30.7042 80.3718 30.4506 80.5831 30.2252C80.7943 30.014 81.0479 29.8872 81.3437 29.859H81.2873C81.7662 29.859 82.1325 29.7745 82.3719 29.5914C82.6114 29.4083 82.7945 29.197 82.9354 28.9716C83.0621 28.7181 83.1466 28.4364 83.1607 28.0983V28.1688C83.1607 27.8448 83.2734 27.5631 83.4847 27.3518C83.696 27.1405 83.9636 27.0278 84.2735 27.0278H93.4854C93.7953 27.0278 94.0629 27.1405 94.2742 27.3518C94.4855 27.5631 94.5982 27.8448 94.5982 28.1688V28.0983C94.6122 28.4223 94.6827 28.7181 94.8235 28.9716C94.9503 29.197 95.1475 29.4083 95.3869 29.5914C95.6405 29.7745 95.9926 29.859 96.4574 29.859H96.4011C96.6969 29.8872 96.9504 30.014 97.1617 30.2252ZM94.5982 35.7045V31.7606C94.5982 31.169 94.4714 30.7323 94.2178 30.4647C93.9643 30.1971 93.7249 30.0281 93.4854 29.9435H84.2876C84.034 30.0281 83.7946 30.1971 83.5269 30.4647C83.2734 30.7323 83.1466 31.1549 83.1466 31.7606V39.6344C83.1466 40.226 83.2734 40.6626 83.5269 40.9302C83.7805 41.1979 84.034 41.3669 84.2876 41.4514H93.4854C93.7108 41.3669 93.9643 41.1979 94.2178 40.9302C94.4714 40.6626 94.5982 40.24 94.5982 39.6344V35.6904V35.7045Z" fill="white"/>
<path d="M116.149 29.9298C116.459 29.9298 116.727 30.0425 116.938 30.2538C117.149 30.465 117.262 30.7327 117.262 31.0425V31.6905C117.262 32.0004 117.149 32.268 116.938 32.4793C116.727 32.6905 116.459 32.8032 116.149 32.8032H116.121C115.853 32.8173 115.614 32.8737 115.403 32.9723C115.22 33.0568 115.037 33.1835 114.853 33.3385C114.67 33.4934 114.544 33.747 114.459 34.085V34.1554C114.515 34.5358 114.628 34.8316 114.811 35.0287C114.994 35.2259 115.177 35.3809 115.389 35.4936C115.614 35.6062 115.882 35.6767 116.163 35.6908C116.473 35.6908 116.741 35.8034 116.952 36.0147C117.163 36.226 117.276 36.4936 117.276 36.8035V43.466H117.248C117.177 43.7195 117.051 43.9308 116.854 44.0998C116.656 44.2688 116.431 44.3533 116.163 44.3533H115.515C115.248 44.3533 115.022 44.2688 114.825 44.0998C114.628 43.9308 114.501 43.7195 114.431 43.466H114.403V37.0289C114.374 36.9162 114.318 36.7753 114.248 36.6204C114.177 36.4655 114.079 36.3246 113.952 36.1838C113.825 36.057 113.642 35.9302 113.431 35.8316C113.219 35.733 112.952 35.6767 112.642 35.6767H104.839C104.444 35.6767 104.12 35.7471 103.881 35.888C103.641 36.0288 103.458 36.1838 103.331 36.3669C103.205 36.55 103.12 36.7331 103.078 36.9021C103.036 37.0711 103.007 37.1979 103.007 37.2824V43.2265C103.007 43.5364 102.895 43.804 102.684 44.0153C102.472 44.2266 102.205 44.3393 101.895 44.3393H101.247C100.937 44.3393 100.669 44.2266 100.458 44.0153C100.247 43.804 100.134 43.5364 100.134 43.2265V31.282C100.134 30.9017 100.247 30.5777 100.458 30.3101C100.669 30.0425 100.937 29.9016 101.247 29.9016H101.176C101.486 29.8875 101.768 29.8171 102.021 29.6762C102.233 29.5636 102.43 29.3805 102.613 29.141C102.796 28.9016 102.895 28.5635 102.909 28.1409V28.0423C102.937 27.7606 103.064 27.5212 103.261 27.3099C103.472 27.0986 103.726 27 104.022 27H113.346C113.656 27 113.924 27.1127 114.149 27.324C114.374 27.5353 114.487 27.8029 114.487 28.1128V28.6057C114.572 28.9156 114.698 29.1692 114.882 29.3382C115.065 29.5072 115.248 29.634 115.431 29.7185C115.642 29.8171 115.882 29.8734 116.149 29.8875H116.177L116.149 29.9298ZM112.501 32.8032C112.867 32.8032 113.163 32.7469 113.389 32.6483C113.614 32.5497 113.797 32.4088 113.938 32.268C114.065 32.113 114.163 31.9581 114.234 31.8032C114.304 31.6482 114.346 31.4933 114.36 31.3806C114.346 31.2679 114.304 31.1271 114.234 30.958C114.163 30.789 114.065 30.6341 113.938 30.4932C113.811 30.3524 113.628 30.2115 113.389 30.1129C113.149 30.0143 112.853 29.958 112.501 29.958H104.768C104.472 29.958 104.219 30.0002 104.008 30.0706C103.796 30.1411 103.613 30.2397 103.486 30.3664C103.36 30.4932 103.247 30.62 103.162 30.7468C103.078 30.8735 103.022 31.0144 102.993 31.1411V31.6905C103.078 31.944 103.247 32.1835 103.515 32.4511C103.782 32.7046 104.205 32.8314 104.782 32.8314H112.515L112.501 32.8032Z" fill="white"/>
<path d="M135.756 29.9294C136.066 29.9294 136.334 30.0421 136.545 30.2534C136.756 30.4647 136.869 30.7323 136.869 31.0422V43.2543C136.869 43.5642 136.756 43.8318 136.545 44.0431C136.334 44.2544 136.066 44.3671 135.756 44.3671H135.108C134.799 44.3671 134.531 44.2544 134.306 44.0431C134.08 43.8318 133.968 43.5642 133.968 43.2543V36.8595C133.953 36.4792 133.799 36.1552 133.517 35.8876C133.235 35.62 132.911 35.4932 132.517 35.4932H124.488C124.108 35.4932 123.784 35.62 123.502 35.8876C123.22 36.1552 123.065 36.4792 123.051 36.8595V43.2543C123.051 43.5642 122.939 43.8318 122.713 44.0431C122.488 44.2544 122.22 44.3671 121.91 44.3671H121.262C120.953 44.3671 120.685 44.2544 120.474 44.0431C120.262 43.8318 120.15 43.5642 120.15 43.2543V31.0422C120.15 30.7323 120.262 30.4647 120.474 30.2534C120.685 30.0421 120.953 29.9294 121.262 29.9294H121.234C121.558 29.9154 121.854 29.8309 122.108 29.6759C122.333 29.5491 122.544 29.3519 122.713 29.1125C122.882 28.8589 122.967 28.5068 122.967 28.042V28.1124C122.981 27.8025 123.094 27.5349 123.319 27.3377C123.53 27.1264 123.784 27.0278 124.08 27.0278H132.897C133.193 27.0278 133.446 27.1264 133.658 27.3377C133.869 27.549 133.982 27.8025 134.01 28.1124V28.042C134.01 28.5068 134.094 28.8589 134.277 29.1125C134.461 29.366 134.658 29.5491 134.869 29.6759C135.123 29.8309 135.404 29.9013 135.742 29.9294H135.714H135.756ZM133.897 31.2957V31.2394C133.869 30.8168 133.672 30.4647 133.334 30.2252C133.052 30.028 132.672 29.9294 132.193 29.9294H124.854C124.375 29.9294 123.995 30.028 123.713 30.2252C123.361 30.4788 123.178 30.8168 123.136 31.2394V31.2957C123.136 31.3803 123.136 31.4507 123.164 31.4929C123.248 31.7183 123.417 31.9718 123.671 32.2254C123.925 32.4789 124.347 32.6057 124.925 32.6057H132.108C132.686 32.6057 133.108 32.4789 133.362 32.2254C133.615 31.9718 133.784 31.7324 133.869 31.4929C133.883 31.4366 133.897 31.3803 133.897 31.2957Z" fill="white"/>
<path d="M156.419 28.1406V28.7885C156.419 29.0984 156.307 29.366 156.095 29.5773C155.856 29.8027 155.602 29.9294 155.307 29.9294H151.166C150.673 29.9294 150.306 30.014 150.081 30.183C149.827 30.3661 149.644 30.5492 149.518 30.7464C149.391 31 149.306 31.2817 149.292 31.5915V43.2684C149.292 43.5783 149.179 43.8459 148.968 44.0572C148.757 44.2685 148.489 44.3812 148.179 44.3812H147.531C147.222 44.3812 146.954 44.2685 146.743 44.0572C146.531 43.8459 146.419 43.5783 146.419 43.2684V31.5915C146.405 31.2817 146.334 31 146.193 30.7464C146.067 30.5492 145.869 30.352 145.616 30.183C145.39 30.014 145.024 29.9294 144.531 29.9294H140.39C140.094 29.9294 139.827 29.8168 139.601 29.5773C139.39 29.366 139.277 29.0984 139.277 28.7885V28.1406C139.277 27.8307 139.39 27.5631 139.601 27.3518C139.813 27.1405 140.08 27.0278 140.39 27.0278H145.278C145.588 27.0278 145.855 27.1405 146.067 27.3518C146.264 27.549 146.376 27.8025 146.419 28.1265V28.0561C146.419 28.5913 146.531 28.9716 146.743 29.197C146.954 29.4646 147.179 29.6477 147.405 29.7463C147.433 29.7604 147.489 29.7745 147.56 29.8027C147.63 29.8168 147.7 29.8308 147.785 29.859H147.94C148.024 29.8449 148.095 29.8308 148.165 29.8027C148.236 29.7886 148.278 29.7745 148.32 29.7463C148.546 29.6477 148.771 29.4646 148.982 29.197C149.194 28.9716 149.306 28.5913 149.306 28.0561V28.1265C149.334 27.8166 149.461 27.5631 149.658 27.3518C149.87 27.1405 150.137 27.0278 150.447 27.0278H155.335C155.645 27.0278 155.912 27.1405 156.124 27.3518C156.335 27.5631 156.448 27.8307 156.448 28.1406H156.419Z" fill="white"/>
<path d="M161.772 27.0278C162.096 27.0278 162.378 27.1405 162.589 27.3518C162.8 27.5631 162.913 27.8448 162.913 28.1688V43.2403C162.913 43.5642 162.8 43.8459 162.589 44.0572C162.378 44.2685 162.096 44.3812 161.772 44.3812H161.152C160.828 44.3812 160.547 44.2685 160.335 44.0572C160.124 43.8459 160.011 43.5642 160.011 43.2403V28.1688C160.011 27.8448 160.124 27.5631 160.335 27.3518C160.547 27.1405 160.828 27.0278 161.152 27.0278H161.772Z" fill="white"/>
<path d="M183.858 30.2252C184.069 30.4365 184.168 30.6901 184.168 31V40.4091C184.168 40.7049 184.069 40.9584 183.858 41.1838C183.647 41.3951 183.393 41.5218 183.098 41.55H183.154C182.689 41.55 182.337 41.6345 182.083 41.8176C181.83 42.0007 181.647 42.1979 181.52 42.4092C181.393 42.6768 181.309 42.9726 181.295 43.2966V43.2262C181.295 43.5501 181.182 43.8318 180.971 44.0431C180.759 44.2544 180.492 44.3671 180.182 44.3671H170.97C170.66 44.3671 170.392 44.2544 170.181 44.0431C169.97 43.8318 169.857 43.5501 169.857 43.2262V43.2966C169.843 42.9726 169.759 42.6628 169.632 42.4092C169.505 42.1979 169.308 42.0007 169.068 41.8176C168.829 41.6345 168.477 41.55 167.984 41.55H168.04C167.744 41.5218 167.491 41.3951 167.279 41.1838C167.068 40.9725 166.97 40.719 166.97 40.4091V31C166.97 30.7042 167.068 30.4506 167.279 30.2252C167.491 29.9999 167.744 29.8872 168.04 29.859H167.984C168.463 29.859 168.829 29.7745 169.068 29.5914C169.308 29.4083 169.491 29.197 169.632 28.9716C169.759 28.7181 169.843 28.4364 169.857 28.0983V28.1688C169.857 27.8448 169.97 27.5631 170.181 27.3518C170.392 27.1405 170.66 27.0278 170.97 27.0278H180.182C180.492 27.0278 180.759 27.1405 180.971 27.3518C181.182 27.5631 181.295 27.8448 181.295 28.1688V28.0983C181.309 28.4223 181.379 28.7181 181.52 28.9716C181.647 29.197 181.844 29.4083 182.083 29.5914C182.337 29.7745 182.689 29.859 183.154 29.859H183.098C183.393 29.8872 183.647 30.014 183.858 30.2252ZM181.295 35.7045V31.7606C181.295 31.169 181.168 30.7323 180.914 30.4647C180.661 30.1971 180.421 30.0281 180.182 29.9435H170.984C170.73 30.0281 170.491 30.1971 170.223 30.4647C169.97 30.7323 169.843 31.1549 169.843 31.7606V39.6344C169.843 40.226 169.97 40.6626 170.223 40.9302C170.477 41.1979 170.73 41.3669 170.984 41.4514H180.182C180.407 41.3669 180.661 41.1979 180.914 40.9302C181.168 40.6626 181.295 40.24 181.295 39.6344V35.6904V35.7045Z" fill="white"/>
<path d="M202.859 27.0282C203.169 27.0282 203.437 27.1409 203.662 27.3521C203.887 27.5634 204 27.8311 204 28.1409V43.2547C204 43.5646 203.887 43.8322 203.662 44.0435C203.437 44.2547 203.169 44.3674 202.859 44.3674H202.211C201.887 44.3674 201.62 44.2548 201.422 44.0153L198.478 41.0855V41.0573H198.45C198.253 40.8601 198.154 40.5925 198.154 40.2685V39.9164C198.126 39.5361 197.971 39.2121 197.69 38.9304C197.408 38.6487 197.098 38.5219 196.718 38.5219H196.366C196.056 38.5219 195.788 38.4093 195.577 38.198C195.366 37.9867 195.253 37.705 195.253 37.381V37.1134C195.239 36.7331 195.098 36.4091 194.858 36.1556C194.605 35.902 194.295 35.7612 193.915 35.7189H193.788C193.478 35.7189 193.21 35.6063 192.985 35.3809C192.76 35.1555 192.647 34.8879 192.647 34.578V33.9582C192.647 33.9582 192.647 33.9019 192.675 33.8878C192.591 33.6061 192.436 33.3667 192.196 33.1695C191.957 32.9723 191.675 32.8596 191.337 32.8455H190.886C190.576 32.8455 190.295 32.7187 190.041 32.4793L189.689 32.1271V43.2265C189.689 43.5364 189.576 43.804 189.365 44.0153C189.154 44.2266 188.886 44.3393 188.576 44.3393H187.928C187.619 44.3393 187.351 44.2266 187.126 44.0153C186.9 43.804 186.787 43.5364 186.787 43.2265V28.1128C186.787 27.8029 186.9 27.5353 187.126 27.324C187.351 27.1127 187.619 27 187.928 27H188.576C188.745 27 188.886 27.0282 189.027 27.0986C189.168 27.169 189.281 27.2535 189.393 27.3521L192.323 30.2819V30.3101H192.351C192.548 30.5355 192.647 30.8031 192.647 31.0989V31.451C192.675 31.8313 192.83 32.1553 193.112 32.437C193.379 32.7046 193.703 32.8455 194.084 32.8455H194.436C194.746 32.8455 195.013 32.9582 195.225 33.1695C195.436 33.3807 195.549 33.6624 195.549 33.9864V34.2822C195.577 34.6625 195.732 34.9865 195.999 35.2541C196.267 35.5217 196.591 35.6485 196.971 35.6485H197.028C197.338 35.6485 197.605 35.7612 197.831 35.9866C198.056 36.2119 198.169 36.4796 198.169 36.7894V37.4092C198.169 37.4092 198.169 37.4374 198.169 37.4514C198.169 37.4514 198.169 37.4655 198.169 37.4937C198.253 37.7754 198.408 38.0149 198.647 38.2121C198.887 38.4093 199.169 38.522 199.479 38.536H199.943C200.267 38.536 200.549 38.6628 200.76 38.9023H200.788L201.141 39.2544V28.155C201.141 27.8451 201.253 27.5775 201.465 27.3662C201.676 27.1549 201.943 27.0423 202.253 27.0423H202.901L202.859 27.0282Z" fill="white"/>
<path fill-rule="evenodd" clip-rule="evenodd" d="M116.977 2.89101C117.278 2.92112 117.534 3.04157 117.745 3.26743C117.956 3.49328 118.061 3.74925 118.061 4.05039V13.6416C118.061 13.9428 117.956 14.2138 117.745 14.4246C117.534 14.6354 117.278 14.7709 116.977 14.801H117.023C116.556 14.801 116.194 14.8914 115.938 15.072C115.682 15.2527 115.487 15.4635 115.351 15.6743C115.216 15.9453 115.14 16.2465 115.125 16.5777V16.5025C115.125 16.8337 115.02 17.1047 114.794 17.3306C114.568 17.5564 114.297 17.6618 113.981 17.6618H104.601C104.269 17.6618 104.013 17.5564 103.787 17.3306C103.562 17.1198 103.456 16.8337 103.456 16.5025V16.5777C103.441 16.2465 103.366 15.9453 103.23 15.6743C103.095 15.4635 102.899 15.2527 102.658 15.072C102.417 14.8914 102.041 14.801 101.559 14.801H101.604C101.303 14.7709 101.047 14.6504 100.836 14.4246C100.626 14.1987 100.52 13.9428 100.52 13.6416V4.05039C100.52 3.74925 100.626 3.49328 100.836 3.26743C101.047 3.05663 101.303 2.92112 101.604 2.89101H101.559C102.056 2.89101 102.417 2.80066 102.658 2.61998C102.899 2.4393 103.095 2.2285 103.23 1.98759C103.366 1.73163 103.441 1.43049 103.456 1.09924V1.17452C103.456 0.843267 103.562 0.572244 103.787 0.346391C104.013 0.120537 104.284 0.0151367 104.601 0.0151367H113.981C114.312 0.0151367 114.568 0.135594 114.794 0.346391C115.02 0.557187 115.125 0.843267 115.125 1.17452V1.09924C115.14 1.44554 115.216 1.73163 115.351 1.98759C115.487 2.2285 115.682 2.4393 115.938 2.61998C116.194 2.80066 116.556 2.89101 117.023 2.89101H116.977ZM114.9 13.7903C115.016 13.5413 115.08 13.2146 115.08 12.7985V11.3982C114.839 10.9766 114.523 10.555 114.132 10.1484C113.119 9.09531 112.01 8.59911 111.346 8.37755V9.16717C111.999 9.53189 113.234 10.3553 114.132 11.88C114.524 12.5672 114.76 13.2283 114.9 13.7903ZM111.346 9.54177C111.809 9.98508 112.795 11.0583 113.108 12.7232C113.258 13.5061 113.213 14.1837 113.138 14.6956H112.084C112.204 14.1084 112.28 13.2502 112.039 12.2564C111.788 11.1842 111.267 10.421 110.928 10.0027C110.974 9.97698 111.038 9.96775 111.12 9.96775C111.18 9.96775 111.241 9.93764 111.286 9.89247C111.331 9.8473 111.346 9.72684 111.346 9.72684V9.54177ZM110.752 10.215C110.929 10.759 111.15 11.6812 111 12.8135C110.894 13.5965 110.653 14.2289 110.428 14.6806H109.223C109.464 14.3493 109.72 13.9428 109.931 13.4308C110.403 12.2897 110.407 11.2399 110.35 10.6001H110.488C110.548 10.6001 110.608 10.57 110.653 10.5249C110.699 10.4797 110.729 10.3592 110.729 10.3592C110.729 10.3052 110.736 10.259 110.752 10.215ZM109.986 10.6001C109.778 11.2735 109.366 12.2693 108.545 13.2652C108.003 13.9127 107.446 14.3644 106.964 14.6806H104.661C104.661 14.6806 104.601 14.6655 104.57 14.6505C105.233 14.4397 106.091 14.0632 106.964 13.4158C108.245 12.459 108.982 11.3333 109.36 10.6001H109.986ZM108.826 10.6001H108.485C108.485 10.6001 108.365 10.57 108.32 10.5249C108.276 10.4814 108.247 10.424 108.244 10.3527C107.761 10.7164 107.005 11.1801 105.986 11.4885C105.007 11.7896 104.134 11.8198 103.501 11.7896V12.949C104.149 12.8888 104.977 12.7382 105.88 12.3919C107.218 11.8937 108.19 11.1673 108.826 10.6001ZM108.049 10.0089C107.994 9.97845 107.927 9.96775 107.838 9.96775C107.838 9.96775 107.717 9.93764 107.672 9.89247C107.627 9.8473 107.612 9.78707 107.612 9.72684V9.55582C107.046 9.64492 106.172 9.70193 105.173 9.4257C104.435 9.21491 103.878 8.89871 103.501 8.64274V10.028C103.908 10.2087 104.45 10.3893 105.113 10.4646C106.446 10.6241 107.514 10.2393 108.049 10.0089ZM107.612 9.08362V8.46515C106.865 8.01443 105.889 7.29279 104.962 6.18847C104.33 5.43562 103.893 4.71289 103.577 4.0805C103.516 4.2913 103.486 4.53221 103.486 4.81829V5.84216C103.727 6.32398 104.239 7.25751 105.293 8.04047C106.191 8.70362 107.077 8.97379 107.612 9.08362ZM107.612 7.87412V7.66405C107.612 7.66405 107.627 7.54359 107.672 7.49842C107.717 7.45325 107.778 7.42313 107.838 7.42313C107.875 7.42313 107.908 7.42127 107.938 7.41693C107.581 6.9936 106.757 5.92746 106.784 4.44187C106.799 3.80948 106.965 3.29754 107.115 2.93617C106.897 2.93617 106.682 2.9437 106.468 2.95123C106.253 2.95876 106.039 2.96629 105.82 2.96629C105.76 3.47822 105.7 4.48704 106.121 5.63136C106.526 6.73043 107.174 7.46912 107.612 7.87412ZM108.243 7.07355C108.244 7.06007 108.244 7.04615 108.244 7.03166C108.244 7.03166 108.274 6.9112 108.32 6.86603C108.365 6.82086 108.425 6.79074 108.485 6.79074H108.735C108.618 6.1646 108.499 4.98905 109.057 3.76431C109.208 3.46317 109.374 3.19214 109.539 2.96629H108.606C108.41 3.3126 108.199 3.77936 108.064 4.35153C107.808 5.53635 108.058 6.54058 108.243 7.07355ZM109.138 6.79074H109.714C109.952 6.24521 110.486 5.28969 111.557 4.51715C112.716 3.67397 113.921 3.49328 114.689 3.46317C114.448 3.22226 114.207 3.04157 113.981 2.96629H113.966C113.989 2.97777 114.012 2.98926 114.035 2.99406C113.704 2.95863 112.005 2.81555 110.593 4.06544C109.488 5.03909 109.211 6.26567 109.138 6.79074ZM110.149 6.79074H110.488C110.488 6.79074 110.608 6.82086 110.653 6.86603C110.699 6.9112 110.729 6.97142 110.729 7.04671C110.729 7.04671 110.733 7.08477 110.743 7.12881C111.099 6.80361 111.748 6.30402 112.701 6.08307C113.62 5.85721 114.463 5.99273 115.095 6.20353V5.22482C114.508 5.11943 113.635 5.0592 112.641 5.33022C111.384 5.67056 110.56 6.37505 110.149 6.79074ZM110.958 7.39811C111.005 7.41631 111.059 7.42313 111.12 7.42313C111.12 7.42313 111.241 7.45325 111.286 7.49842C111.286 7.49842 111.346 7.60382 111.346 7.66405V8.02794C112.044 8.00508 113.254 8.08198 114.523 8.7632C114.585 8.80105 114.646 8.83742 114.707 8.87323C114.839 8.95139 114.967 9.02691 115.08 9.10951V7.79955C114.644 7.58876 114.071 7.36291 113.379 7.25751C112.332 7.10185 111.471 7.26537 110.958 7.39811ZM110.729 7.82967V9.54616C110.729 9.68167 110.699 9.77201 110.638 9.83224C110.593 9.89247 110.488 9.95269 110.488 9.95269H108.485C108.425 9.92258 108.38 9.89247 108.32 9.83224C108.259 9.77201 108.229 9.68167 108.229 9.54616V7.82967C108.229 7.69416 108.259 7.60382 108.32 7.54359C108.38 7.48336 108.485 7.42313 108.485 7.42313H110.488C110.533 7.45325 110.578 7.48336 110.638 7.54359C110.699 7.60382 110.729 7.69416 110.729 7.82967Z" fill="white"/>
<path d="M17.5262 1.14432V1.80682C17.5262 2.12302 17.4208 2.39404 17.195 2.6199C16.9541 2.86081 16.683 2.96621 16.3819 2.96621H12.166C11.654 2.96621 11.2927 3.05655 11.0518 3.22218C10.7958 3.40286 10.6001 3.5986 10.4645 3.8094C10.329 4.06536 10.2538 4.35144 10.2387 4.66764V16.5475C10.2387 16.8637 10.1333 17.1348 9.90745 17.3606C9.68159 17.5865 9.42562 17.6919 9.09437 17.6919H8.43186C8.11567 17.6919 7.84464 17.5865 7.61879 17.3606C7.39294 17.1498 7.28754 16.8788 7.28754 16.5475V4.66764C7.27248 4.35144 7.1972 4.06536 7.06169 3.8094C6.92618 3.61366 6.73044 3.41792 6.47447 3.22218C6.23356 3.05655 5.87219 2.96621 5.36025 2.96621H1.14433C0.84319 2.96621 0.572164 2.84575 0.331254 2.6199C0.1054 2.39404 0 2.13808 0 1.80682V1.14432C0 0.828127 0.1054 0.557102 0.331254 0.331248C0.54205 0.105394 0.813076 0 1.14433 0H6.1131C6.4293 0 6.70032 0.105394 6.92617 0.331248C7.12191 0.526988 7.24237 0.798013 7.27249 1.11421V1.03892C7.27249 1.58097 7.37789 1.9574 7.60374 2.19831C7.8296 2.46933 8.05544 2.65001 8.2813 2.75541C8.31141 2.77047 8.37164 2.78552 8.43186 2.80058C8.49209 2.81564 8.56738 2.8307 8.65772 2.84575H8.80829C8.89863 2.8307 8.97392 2.81564 9.03414 2.80058C9.09437 2.78552 9.1546 2.77047 9.18471 2.75541C9.42562 2.65001 9.65148 2.46933 9.86228 2.19831C10.0881 1.9574 10.1935 1.58097 10.1935 1.03892V1.11421C10.2236 0.798013 10.3441 0.526988 10.5398 0.331248C10.7657 0.105394 11.0217 0 11.3529 0H16.3217C16.6379 0 16.9089 0.105394 17.1348 0.331248C17.3456 0.557102 17.466 0.81307 17.466 1.14432" fill="white"/>
<path d="M36.0769 2.96604C36.393 2.96604 36.6641 3.07144 36.8899 3.2973C37.1158 3.52315 37.2212 3.77912 37.2212 4.11037V4.77287C37.2212 5.08907 37.1158 5.36009 36.8899 5.58595C36.6641 5.8118 36.4081 5.91719 36.0769 5.91719H35.4143C35.0982 5.91719 34.8271 5.8118 34.6013 5.58595C34.3754 5.37515 34.27 5.10412 34.27 4.77287V4.59219C34.27 4.50185 34.2399 4.38139 34.1947 4.20071C34.1496 4.02003 34.0442 3.83934 33.9237 3.65866C33.7882 3.47798 33.5925 3.31235 33.3516 3.17684C33.1106 3.04133 32.7794 2.9811 32.3578 2.9811H24.483C23.8958 2.9811 23.4592 3.11661 23.2032 3.37258C22.9322 3.62855 22.7515 3.88452 22.6762 4.14048V4.51691C22.7063 4.90839 22.872 5.23964 23.143 5.51066C23.414 5.78169 23.7452 5.93225 24.1367 5.93225H30.2197C30.551 5.93225 30.8371 6.03765 31.0479 6.26351C31.2737 6.48936 31.3791 6.74533 31.3791 7.07658V7.73908C31.3791 8.05528 31.2737 8.3263 31.0479 8.55215C30.822 8.77801 30.551 8.88341 30.2197 8.88341H24.1367C23.7452 8.88341 23.414 9.01892 23.143 9.305C22.872 9.57602 22.7063 9.92234 22.6762 10.2988V13.5962C22.7665 13.8522 22.9322 14.1082 23.2032 14.3641C23.4742 14.6201 23.8958 14.7556 24.483 14.7556H32.3578C32.7794 14.7556 33.1106 14.6954 33.3516 14.5599C33.5925 14.4243 33.7882 14.2587 33.9237 14.078C34.0592 13.8974 34.1496 13.7167 34.1947 13.536C34.2399 13.3553 34.27 13.2349 34.27 13.1445V12.9638C34.27 12.6476 34.3754 12.3766 34.6013 12.1508C34.8271 11.94 35.0831 11.8195 35.4143 11.8195H36.0769C36.393 11.8195 36.6641 11.9249 36.8899 12.1508C37.1158 12.3766 37.2212 12.6326 37.2212 12.9638V13.6263C37.2212 13.9425 37.1158 14.2136 36.8899 14.4394C36.6641 14.6653 36.4081 14.7707 36.0769 14.7707H36.0467C35.7757 14.7857 35.5348 14.8459 35.3089 14.9513C35.1283 15.0417 34.9325 15.1621 34.7519 15.3278C34.5712 15.4934 34.4356 15.7494 34.3453 16.0806V16.5925C34.3453 16.9087 34.2249 17.1798 33.999 17.4056C33.7732 17.6315 33.5021 17.7369 33.1859 17.7369H23.7001C23.3989 17.7369 23.143 17.6315 22.9322 17.4207C22.7214 17.2099 22.6009 16.969 22.5708 16.6829V16.5775C22.5557 16.1408 22.4504 15.7945 22.2697 15.5536C22.089 15.3127 21.8782 15.132 21.6674 15.0116C21.4265 14.8761 21.1555 14.8008 20.8393 14.7857H20.8844C20.5682 14.7857 20.2972 14.6803 20.0714 14.4545C19.8455 14.2286 19.7401 13.9726 19.7401 13.6414V4.15554C19.7401 3.83934 19.8455 3.56832 20.0714 3.34246C20.2972 3.11661 20.5532 3.01122 20.8844 3.01122H20.8393C21.1555 2.99616 21.4415 2.92087 21.6674 2.78536C21.8932 2.66491 22.089 2.48422 22.2697 2.24331C22.4504 2.0024 22.5557 1.65609 22.5708 1.21944V1.11404C22.6009 0.827962 22.7214 0.587055 22.9322 0.376258C23.143 0.165461 23.3989 0.0600586 23.7001 0.0600586H33.1859C33.5021 0.0600586 33.7732 0.165459 33.999 0.391312C34.2249 0.617166 34.3453 0.873135 34.3453 1.20439V1.71632C34.4356 2.03252 34.5712 2.28848 34.7519 2.45411C34.9325 2.63479 35.1283 2.75525 35.3089 2.84559C35.5197 2.95099 35.7757 3.01121 36.0467 3.02627H36.0769V2.96604Z" fill="white"/>
<path d="M56.2528 2.96645C56.569 2.96645 56.84 3.07185 57.0658 3.2977C57.2917 3.52356 57.3971 3.77952 57.3971 4.11078V4.77328C57.3971 5.08947 57.2917 5.3605 57.0658 5.58635C56.84 5.81221 56.584 5.9176 56.2528 5.9176H55.5903C55.2741 5.9176 55.003 5.81221 54.7772 5.58635C54.5513 5.37556 54.4459 5.10453 54.4459 4.77328V4.5926C54.4459 4.50226 54.4158 4.3818 54.3706 4.20111C54.3255 4.02043 54.2201 3.83975 54.0996 3.65906C53.9641 3.47838 53.7684 3.31276 53.5275 3.17724C53.2866 3.04173 52.9553 2.98151 52.5337 2.98151H44.6589C44.0717 2.98151 43.6351 3.11702 43.3791 3.37299C43.1081 3.62895 42.9274 3.88492 42.8521 4.14089V13.5816C42.9424 13.8375 43.1081 14.0935 43.3791 14.3495C43.6501 14.6054 44.0717 14.7409 44.6589 14.7409H52.5337C52.9553 14.7409 53.2866 14.6807 53.5275 14.5452C53.7684 14.4097 53.9641 14.2441 54.0996 14.0634C54.2351 13.8827 54.3255 13.702 54.3706 13.5213C54.4158 13.3407 54.4459 13.2202 54.4459 13.1299V12.9492C54.4459 12.633 54.5513 12.362 54.7772 12.1361C55.003 11.9253 55.259 11.8049 55.5903 11.8049H56.2528C56.569 11.8049 56.84 11.9103 57.0658 12.1361C57.2917 12.362 57.3971 12.6179 57.3971 12.9492V13.6117C57.3971 13.9279 57.2917 14.1989 57.0658 14.4248C56.84 14.6506 56.584 14.756 56.2528 14.756H56.2226C55.9516 14.7711 55.7107 14.8313 55.4849 14.9367C55.3042 15.027 55.1084 15.1475 54.9277 15.3131C54.7471 15.4787 54.6116 15.7347 54.5212 16.066V16.5779C54.5212 16.8941 54.4008 17.1651 54.1749 17.391C53.949 17.6168 53.678 17.7222 53.3618 17.7222H43.876C43.5748 17.7222 43.3189 17.6168 43.1081 17.406C42.8973 17.1952 42.7768 16.9543 42.7467 16.6682V16.5628C42.7317 16.1262 42.6263 15.7799 42.4456 15.539C42.2649 15.2981 42.0541 15.1174 41.8433 14.9969C41.6024 14.8614 41.3314 14.7861 41.0152 14.7711H41.0603C40.7441 14.7711 40.4731 14.6657 40.2473 14.4398C40.0214 14.214 39.916 13.958 39.916 13.6267V4.14089C39.916 3.8247 40.0214 3.55367 40.2473 3.32782C40.4731 3.10196 40.7291 2.99656 41.0603 2.99656H41.0152C41.3314 2.98151 41.6174 2.90622 41.8433 2.77071C42.0692 2.65026 42.2649 2.46957 42.4456 2.22866C42.6263 1.98775 42.7317 1.64144 42.7467 1.20479V1.09939C42.7768 0.813314 42.8973 0.572401 43.1081 0.361604C43.3189 0.150807 43.5748 0.0454102 43.876 0.0454102H53.3618C53.678 0.0454102 53.949 0.15081 54.1749 0.376664C54.4008 0.602518 54.5212 0.858481 54.5212 1.18973V1.70167C54.6116 2.01786 54.7471 2.27383 54.9277 2.43946C55.1084 2.62014 55.3042 2.74059 55.4849 2.83094C55.6956 2.93633 55.9516 2.99657 56.2226 3.01162H56.2528V2.96645Z" fill="white"/>
<path d="M76.5346 0.0151367C76.8508 0.0151367 77.1218 0.120537 77.3476 0.346391C77.5735 0.572244 77.6789 0.828207 77.6789 1.15946V4.77312C77.6789 5.08931 77.5735 5.36034 77.3476 5.58619C77.1218 5.81205 76.8658 5.91744 76.5647 5.91744H76.6399C76.113 5.91744 75.7215 6.02284 75.4655 6.2487C75.2095 6.47455 75.0289 6.7004 74.9235 6.92626C74.8934 7.03166 74.8632 7.16717 74.8181 7.33279V7.45325C74.8482 7.61887 74.8783 7.75439 74.9235 7.85978C75.0289 8.10069 75.2095 8.32655 75.4655 8.53735C75.7215 8.7632 76.113 8.8686 76.6399 8.8686H76.5346C76.8508 8.8686 77.1218 8.98905 77.3476 9.21491C77.5735 9.44076 77.6789 9.71178 77.6789 10.0129V16.5777C77.6789 16.8939 77.5735 17.165 77.3476 17.3908C77.1218 17.6167 76.8658 17.7221 76.5346 17.7221H75.8721C75.5559 17.7221 75.2848 17.6167 75.059 17.3908C74.8331 17.165 74.7127 16.909 74.7127 16.5777V13.8223H74.7428V10.7658C74.7428 10.3291 74.6675 9.98281 74.5169 9.72684C74.3664 9.47088 74.1857 9.29019 74.005 9.15468C73.8093 9.03422 73.6286 8.94388 73.4328 8.91377C73.2522 8.88365 73.1166 8.8686 73.0564 8.8686H64.6547C64.3385 8.88366 64.0524 8.95894 63.7964 9.09445C63.5706 9.22996 63.3748 9.4257 63.2092 9.66661C63.0285 9.90752 62.9382 10.2689 62.9382 10.7658V13.8223H62.9683V16.5777C62.9683 16.8939 62.8478 17.165 62.622 17.3908C62.3961 17.6167 62.1251 17.7221 61.8089 17.7221H61.1464C60.8302 17.7221 60.5592 17.6167 60.3333 17.3908C60.1075 17.165 60.0021 16.909 60.0021 16.5777V10.0129C60.0021 9.71178 60.1075 9.45582 60.3333 9.22996C60.5592 9.00411 60.8151 8.89871 61.1163 8.88365H61.041C61.568 8.88365 61.9595 8.77825 62.2154 8.5524C62.4714 8.32655 62.6521 8.1007 62.7575 7.87484C62.7876 7.76945 62.8177 7.63393 62.8629 7.46831V7.34785C62.8629 7.34785 62.8328 7.21234 62.8177 7.15211C62.8177 7.09189 62.7876 7.03165 62.7575 6.97143C62.6521 6.73052 62.4714 6.50466 62.2154 6.27881C61.9595 6.05296 61.568 5.9325 61.041 5.9325H61.1464C60.8302 5.9325 60.5592 5.8271 60.3333 5.60125C60.1075 5.39045 60.0021 5.11943 60.0021 4.78817V1.17452C60.0021 0.858324 60.1075 0.587299 60.3333 0.361445C60.5441 0.135591 60.8152 0.0301911 61.1464 0.0301911H61.8089C62.1251 0.0301911 62.3961 0.135591 62.622 0.361445C62.8478 0.587299 62.9683 0.843267 62.9683 1.17452V3.92993H62.9382V4.03533C62.9382 4.47198 63.0135 4.81829 63.164 5.07426C63.3146 5.33023 63.4802 5.51091 63.676 5.64642C63.8717 5.76688 64.0524 5.85722 64.2481 5.88733C64.4288 5.91745 64.5643 5.9325 64.6245 5.9325H73.0263C73.3425 5.91744 73.6286 5.84216 73.8845 5.70665C74.1104 5.57113 74.3061 5.37539 74.4718 5.11943C74.6525 4.86346 74.7428 4.50209 74.7428 4.03533V3.92993H74.7127V1.17452C74.7127 0.858324 74.8331 0.587299 75.059 0.361445C75.2848 0.135591 75.5559 0.0301911 75.8721 0.0301911H76.5346V0.0151367Z" fill="white"/>
<path d="M96.6205 0.0151367C96.9367 0.0151367 97.2077 0.120537 97.4336 0.346391C97.6595 0.572244 97.7799 0.828207 97.7799 1.15946V16.5476C97.7799 16.8638 97.6595 17.1348 97.4336 17.3607C97.2077 17.5865 96.9367 17.6919 96.6205 17.6919H95.958C95.6268 17.6919 95.3557 17.5715 95.1449 17.3456L92.1486 14.3644V14.3343H92.1185C91.9227 14.1385 91.8174 13.8675 91.8174 13.5212V13.1749C91.7872 12.7834 91.6216 12.4521 91.3506 12.1811C91.0796 11.9101 90.7333 11.7595 90.3568 11.7595H90.0105C89.6943 11.7595 89.4233 11.6541 89.1975 11.4283C88.9716 11.2024 88.8662 10.9314 88.8662 10.6001V10.3291C88.8512 9.93764 88.7156 9.62144 88.4597 9.35042C88.2037 9.09445 87.8875 8.94388 87.496 8.91377H87.3756C87.0594 8.91377 86.7884 8.79331 86.5625 8.56746C86.3367 8.34161 86.2162 8.07058 86.2162 7.75439V7.122C86.2162 7.122 86.2162 7.06177 86.2463 7.04671C86.156 6.76063 86.0054 6.51972 85.7494 6.30892C85.5085 6.11318 85.2224 5.99273 84.8761 5.97767H84.4244C84.1082 5.97767 83.8221 5.85722 83.5662 5.60125L83.2199 5.25494V16.5627C83.2199 16.8789 83.1145 17.1499 82.8886 17.3757C82.6628 17.6016 82.4068 17.707 82.0755 17.707H81.413C81.0968 17.707 80.8258 17.6016 80.6 17.3757C80.3741 17.1499 80.2537 16.8939 80.2537 16.5627V1.17452C80.2537 0.858324 80.3741 0.587299 80.6 0.361445C80.8258 0.135591 81.0968 0.0301911 81.413 0.0301911H82.0755C82.2412 0.0301911 82.3917 0.0603102 82.5272 0.135595C82.6628 0.195822 82.7832 0.286161 82.9037 0.391559L85.8849 3.37283V3.40294H85.9151C86.1108 3.64385 86.2162 3.91488 86.2162 4.21602V4.56232C86.2463 4.9538 86.4119 5.28505 86.6829 5.55608C86.954 5.8271 87.2852 5.97767 87.6767 5.97767H88.023C88.3392 5.97767 88.6102 6.08307 88.8361 6.30892C89.0469 6.53478 89.1673 6.8058 89.1673 7.13705V7.43819C89.1975 7.82967 89.348 8.14587 89.6191 8.41689C89.8901 8.68792 90.2213 8.82343 90.5977 8.82343H90.6429C90.9591 8.82343 91.2302 8.94388 91.456 9.16974C91.6819 9.39559 91.8023 9.66661 91.8023 9.98281V10.6152C91.8023 10.6152 91.8023 10.6453 91.8023 10.6604C91.8023 10.6604 91.8023 10.6754 91.8023 10.7055C91.8926 10.9916 92.0432 11.2325 92.2992 11.4433C92.5401 11.6391 92.8262 11.7595 93.1424 11.7746H93.6242C93.9554 11.7746 94.2415 11.895 94.4523 12.151H94.4824L94.8287 12.4973V1.18957C94.8287 0.873379 94.9341 0.602359 95.16 0.376505C95.3858 0.150651 95.6418 0.0452512 95.9731 0.0452512H96.6356L96.6205 0.0151367Z" fill="white"/>
</svg>
