<svg width="1680" height="776" viewBox="0 0 1680 776" fill="none" xmlns="http://www.w3.org/2000/svg">
<path d="M1587.05 557C1587.05 550.373 1581.68 545 1575.05 545H1552.58C1545.95 545 1540.58 550.373 1540.58 557V578C1540.58 584.627 1545.95 590 1552.58 590H1575.05C1581.68 590 1587.05 584.627 1587.05 578V557Z" fill="black"/>
<path d="M564.48 775C571.108 775 576.48 769.627 576.48 763V742C576.48 735.373 571.108 730 564.48 730H542.006C535.378 730 530.006 735.373 530.006 742V763C530.006 769.627 535.378 775 542.006 775H564.48Z" fill="black"/>
<path d="M845.438 763C845.438 769.627 840.066 775 833.438 775H810.964C804.337 775 798.964 769.627 798.964 763V742C798.964 735.373 804.337 730 810.964 730H833.438C840.066 730 845.438 735.373 845.438 742V763Z" fill="black"/>
<path d="M1126.26 763C1126.26 769.627 1120.89 775 1114.26 775H1091.79C1085.16 775 1079.79 769.627 1079.79 763V742C1079.79 735.373 1085.16 730 1091.79 730H1114.26C1120.89 730 1126.26 735.373 1126.26 742V763Z" fill="black"/>
<path d="M1400.16 763C1400.16 769.627 1394.79 775 1388.16 775H1365.69C1359.06 775 1353.69 769.627 1353.69 763V742C1353.69 735.373 1359.06 730 1365.69 730H1388.16C1394.79 730 1400.16 735.373 1400.16 742V763Z" fill="black"/>
<path fill-rule="evenodd" clip-rule="evenodd" d="M1681 0H0V428C0 421.373 5.37259 416 12 416H34.4744C41.1018 416 46.4744 421.373 46.4744 428V449C46.4744 455.627 51.847 461 58.4744 461H80.9488C87.5762 461 92.9488 455.627 92.9488 449V428C92.9488 421.373 98.3214 416 104.949 416H127.423C134.051 416 139.423 421.373 139.423 428V451C139.423 457.627 134.051 463 127.423 463H104.949C98.3214 463 92.9488 468.373 92.9488 475V496C92.9488 502.627 87.5762 508 80.9488 508H58.4744C51.847 508 46.4744 513.373 46.4744 520V539C46.4744 545.627 51.847 551 58.4744 551H80.9488C87.5762 551 92.9488 556.373 92.9488 563V584C92.9488 590.627 98.3214 596 104.949 596H127.423C134.051 596 139.423 590.627 139.423 584V562C139.423 555.373 144.796 550 151.423 550H173.898C180.525 550 185.898 555.373 185.898 562V585C185.898 591.627 180.525 597 173.898 597H151.423C144.796 597 139.423 602.373 139.423 609V630C139.423 636.627 144.796 642 151.423 642H173.898C180.525 642 185.898 647.373 185.898 654V677C185.898 683.627 180.525 689 173.898 689H151.423C144.796 689 139.423 694.373 139.423 701V723C139.423 729.627 134.051 735 127.423 735H104.949C98.3214 735 92.9488 740.373 92.9488 747V766C92.9488 772.627 98.3214 778 104.949 778H127.423C134.051 778 139.423 783.373 139.423 790V813C139.423 819.627 134.051 825 127.423 825H104.949C98.3214 825 92.9488 819.627 92.9488 813V793C92.9488 786.373 87.5762 781 80.9488 781H58.4744C51.847 781 46.4744 775.627 46.4744 769V746C46.4744 739.373 51.847 734 58.4744 734H80.9488C87.5762 734 92.9488 728.627 92.9488 722V701C92.9488 694.373 87.5762 689 80.9488 689H58.4744C51.847 689 46.4744 683.627 46.4744 677V654C46.4744 647.373 51.847 642 58.4744 642H80.9488C87.5762 642 92.9488 636.627 92.9488 630V610C92.9488 603.373 87.5762 598 80.9488 598H58.4744C51.847 598 46.4744 592.627 46.4744 586V565C46.4744 558.373 41.1018 553 34.4744 553H12C5.37258 553 0 547.627 0 541V868H276.014C269.387 868 264.014 862.627 264.014 856V833C264.014 826.373 269.387 821 276.014 821H298.489C305.116 821 310.489 815.627 310.489 809V787C310.489 780.373 315.861 775 322.489 775H344.963C351.59 775 356.963 769.627 356.963 763V742C356.963 735.373 351.59 730 344.963 730H322.489C315.861 730 310.489 724.627 310.489 718V695C310.489 688.373 315.861 683 322.489 683H344.963C351.59 683 356.963 677.627 356.963 671V649C356.963 642.373 362.336 637 368.963 637H391.437C398.065 637 403.437 642.373 403.437 649V672C403.437 678.627 398.065 684 391.437 684H368.963C362.336 684 356.963 689.373 356.963 696V717C356.963 723.627 362.336 729 368.963 729H391.437C398.065 729 403.437 734.373 403.437 741V764C403.437 770.627 398.065 776 391.437 776H368.963C362.336 776 356.963 781.373 356.963 788V810C356.963 816.627 351.59 822 344.963 822H322.489C315.861 822 310.489 827.373 310.489 834V856C310.489 862.627 305.116 868 298.489 868H1681V0ZM1541.57 414C1541.57 407.373 1536.19 402 1529.57 402H1507.09C1500.46 402 1495.09 407.373 1495.09 414V437C1495.09 443.627 1500.46 449 1507.09 449H1529.57C1536.19 449 1541.57 443.627 1541.57 437V414ZM1262.72 460C1262.72 453.373 1268.09 448 1274.72 448H1297.19C1303.82 448 1309.19 453.373 1309.19 460V483C1309.19 489.627 1303.82 495 1297.19 495H1274.72C1268.09 495 1262.72 500.373 1262.72 507V528C1262.72 534.627 1268.09 540 1274.72 540H1297.19C1303.82 540 1309.19 545.373 1309.19 552V575C1309.19 581.627 1303.82 587 1297.19 587H1274.72C1268.09 587 1262.72 592.373 1262.72 599V621C1262.72 627.627 1257.35 633 1250.72 633H1228.24C1221.62 633 1216.24 627.627 1216.24 621V598C1216.24 591.373 1221.62 586 1228.24 586H1250.72C1257.35 586 1262.72 580.627 1262.72 574V553C1262.72 546.373 1257.35 541 1250.72 541H1228.24C1221.62 541 1216.24 535.627 1216.24 529V512C1216.24 505.373 1210.87 500 1204.24 500H1181.77C1175.14 500 1169.77 494.627 1169.77 488V465C1169.77 458.373 1175.14 453 1181.77 453H1204.24C1210.87 453 1216.24 458.373 1216.24 465V482C1216.24 488.627 1221.62 494 1228.24 494H1250.72C1257.35 494 1262.72 488.627 1262.72 482V460ZM1390.14 540C1396.77 540 1402.14 545.373 1402.14 552V575C1402.14 581.627 1396.77 587 1390.14 587H1367.67C1361.04 587 1355.67 581.627 1355.67 575V552C1355.67 545.373 1361.04 540 1367.67 540H1390.14ZM1355.67 460C1355.67 453.373 1361.04 448 1367.67 448H1390.14C1396.77 448 1402.14 453.373 1402.14 460V483C1402.14 489.627 1396.77 495 1390.14 495H1367.67C1361.04 495 1355.67 489.627 1355.67 483V460ZM311.477 418C311.477 411.373 316.85 406 323.477 406H345.952C352.579 406 357.952 411.373 357.952 418V440C357.952 446.627 363.324 452 369.952 452H392.426C399.054 452 404.426 457.373 404.426 464V487C404.426 493.627 399.054 499 392.426 499H369.952C363.324 499 357.952 493.627 357.952 487V465C357.952 458.373 352.579 453 345.952 453H323.477C316.85 453 311.477 458.373 311.477 465V487C311.477 493.627 306.105 499 299.477 499H277.003C270.376 499 265.003 504.373 265.003 511V532C265.003 538.627 270.376 544 277.003 544H299.477C306.105 544 311.477 549.373 311.477 556V579C311.477 585.627 306.105 591 299.477 591H277.003C270.376 591 265.003 596.373 265.003 603V625C265.003 631.627 259.63 637 253.003 637H230.529C223.901 637 218.529 631.627 218.529 625V602C218.529 595.373 223.901 590 230.529 590H253.003C259.63 590 265.003 584.627 265.003 578V557C265.003 550.373 259.63 545 253.003 545H230.529C223.901 545 218.529 539.627 218.529 533L218.529 516C218.529 509.373 213.156 504 206.529 504H184.054C177.427 504 172.054 498.627 172.054 492V469C172.054 462.373 177.427 457 184.054 457H206.529C213.156 457 218.529 462.373 218.529 469L218.529 486C218.529 492.627 223.901 498 230.529 498H253.003C259.63 498 265.003 492.627 265.003 486V464C265.003 457.373 270.376 452 277.003 452H299.477C306.105 452 311.477 446.627 311.477 440V418ZM369.952 544C363.324 544 357.952 549.373 357.952 556V579C357.952 585.627 363.324 591 369.952 591H392.426C399.054 591 404.426 585.627 404.426 579V556C404.426 549.373 399.054 544 392.426 544H369.952ZM810.964 406C804.337 406 798.964 411.373 798.964 418V440C798.964 446.627 793.591 452 786.964 452H764.49C757.862 452 752.49 457.373 752.49 464V486C752.49 492.627 747.117 498 740.49 498H718.015C711.388 498 706.015 492.627 706.015 486V469C706.015 462.373 700.643 457 694.015 457H671.541C664.914 457 659.541 462.373 659.541 469V492C659.541 498.627 664.914 504 671.541 504H694.015C700.643 504 706.015 509.373 706.015 516V533C706.015 539.627 711.388 545 718.015 545H740.49C747.117 545 752.49 550.373 752.49 557V578C752.49 584.627 747.117 590 740.49 590H718.015C711.388 590 706.015 595.373 706.015 602V625C706.015 631.627 711.388 637 718.015 637H740.49C747.117 637 752.49 631.627 752.49 625V603C752.49 596.373 757.862 591 764.49 591H786.964C793.591 591 798.964 585.627 798.964 579V556C798.964 549.373 793.591 544 786.964 544H764.49C757.862 544 752.49 538.627 752.49 532V511C752.49 504.373 757.862 499 764.49 499H786.964C793.591 499 798.964 493.627 798.964 487V465C798.964 458.373 804.337 453 810.964 453H833.438C840.066 453 845.438 458.373 845.438 465V487C845.438 493.627 850.811 499 857.438 499H879.913C886.54 499 891.913 493.627 891.913 487V464C891.913 457.373 886.54 452 879.913 452H857.438C850.811 452 845.438 446.627 845.438 440V418C845.438 411.373 840.066 406 833.438 406H810.964ZM845.438 556C845.438 549.373 850.811 544 857.438 544H879.913C886.54 544 891.913 549.373 891.913 556V579C891.913 585.627 886.54 591 879.913 591H857.438C850.811 591 845.438 585.627 845.438 579V556ZM483.532 418C483.532 411.373 478.159 406 471.532 406H449.057C442.43 406 437.057 411.373 437.057 418V441C437.057 447.627 442.43 453 449.057 453H471.532C478.159 453 483.532 458.373 483.532 465V486C483.532 492.627 478.159 498 471.532 498H449.057C442.43 498 437.057 503.373 437.057 510V533C437.057 539.627 442.43 545 449.057 545H471.532C478.159 545 483.532 550.373 483.532 557V578C483.532 584.627 478.159 590 471.532 590H449.057C442.43 590 437.057 595.373 437.057 602V625C437.057 631.627 442.43 637 449.057 637H471.532C478.159 637 483.532 631.627 483.532 625L483.531 603C483.531 596.373 488.904 591 495.531 591H518.006C524.633 591 530.006 585.627 530.006 579V556C530.006 549.373 524.633 544 518.006 544H495.531C488.904 544 483.531 538.627 483.531 532V511C483.531 504.373 488.904 499 495.531 499H518.006C524.633 499 530.006 493.627 530.006 487V465C530.006 458.373 535.378 453 542.006 453H564.48C571.108 453 576.48 458.373 576.48 465V487C576.48 493.627 581.853 499 588.48 499H610.955C617.582 499 622.955 493.627 622.955 487V464C622.955 457.373 617.582 452 610.955 452H588.48C581.853 452 576.48 446.627 576.48 440V418C576.48 411.373 571.108 406 564.48 406H542.006C535.378 406 530.006 411.373 530.006 418V440C530.006 446.627 524.633 452 518.006 452H495.532C488.904 452 483.532 446.627 483.532 440V418ZM588.48 544C581.853 544 576.48 549.373 576.48 556V579C576.48 585.627 581.853 591 588.48 591H610.955C617.582 591 622.955 585.627 622.955 579V556C622.955 549.373 617.582 544 610.955 544H588.48ZM1482.1 498C1488.73 498 1494.1 503.373 1494.1 510V533C1494.1 539.627 1488.73 545 1482.1 545H1459.63C1453 545 1447.63 539.627 1447.63 533V510C1447.63 503.373 1453 498 1459.63 498H1482.1ZM1587.05 510C1587.05 503.373 1581.68 498 1575.05 498H1552.58C1545.95 498 1540.58 503.373 1540.58 510V532C1540.58 538.627 1535.2 544 1528.58 544H1506.1C1499.47 544 1494.1 549.373 1494.1 556V579C1494.1 585.627 1499.47 591 1506.1 591H1528.58C1535.2 591 1540.58 596.373 1540.58 603V624C1540.58 630.627 1535.2 636 1528.58 636H1506.1C1499.47 636 1494.1 641.373 1494.1 648V671C1494.1 677.627 1499.47 683 1506.1 683H1528.58C1535.2 683 1540.58 688.373 1540.58 695V716C1540.58 722.627 1535.2 728 1528.58 728H1506.1C1499.47 728 1494.1 733.373 1494.1 740V763C1494.1 769.627 1499.47 775 1506.1 775H1528.1C1534.73 775 1540.1 780.373 1540.1 787V810C1540.1 816.627 1545.48 822 1552.1 822H1574.58C1581.2 822 1586.58 816.627 1586.58 810V787C1586.58 780.373 1581.2 775 1574.58 775H1552.58C1545.95 775 1540.58 769.627 1540.58 763V741C1540.58 734.373 1545.95 729 1552.58 729H1575.05C1581.68 729 1587.05 723.627 1587.05 717V694C1587.05 687.373 1581.68 682 1575.05 682H1552.58C1545.95 682 1540.58 676.627 1540.58 670V649C1540.58 642.373 1545.95 637 1552.58 637H1575.05C1581.68 637 1587.05 631.627 1587.05 625V603C1587.05 596.373 1592.42 591 1599.05 591H1621.53C1628.15 591 1633.53 596.373 1633.53 603V625C1633.53 631.627 1638.9 637 1645.53 637H1668C1674.63 637 1680 631.627 1680 625V602C1680 595.373 1674.63 590 1668 590H1645.53C1638.9 590 1633.53 584.627 1633.53 578V557C1633.53 550.373 1638.9 545 1645.53 545H1668C1674.63 545 1680 539.627 1680 533V510C1680 503.373 1674.63 498 1668 498H1645.53C1638.9 498 1633.53 503.373 1633.53 510V532C1633.53 538.627 1628.15 544 1621.53 544H1599.05C1592.42 544 1587.05 538.627 1587.05 532V510ZM1645.53 682C1638.9 682 1633.53 687.373 1633.53 694V717C1633.53 723.627 1638.9 729 1645.53 729H1668C1674.63 729 1680 723.627 1680 717V694C1680 687.373 1674.63 682 1668 682H1645.53ZM972.862 406C979.489 406 984.862 411.373 984.862 418V441C984.862 447.627 979.489 453 972.862 453H950.387C943.76 453 938.387 447.627 938.387 441V418C938.387 411.373 943.76 406 950.387 406H972.862ZM938.387 510C938.387 503.373 943.76 498 950.387 498H972.862C979.489 498 984.862 503.373 984.862 510V533C984.862 539.627 979.489 545 972.862 545H950.387C943.76 545 938.387 539.627 938.387 533V510ZM950.387 590C943.76 590 938.387 595.373 938.387 602V625C938.387 631.627 943.76 637 950.387 637H972.862C979.489 637 984.862 631.627 984.862 625V602C984.862 595.373 979.489 590 972.862 590H950.387ZM984.862 556C984.862 549.373 990.234 544 996.862 544H1019.34C1025.96 544 1031.34 549.373 1031.34 556V579C1031.34 585.627 1025.96 591 1019.34 591H996.862C990.234 591 984.862 585.627 984.862 579V556ZM1065.81 406C1072.44 406 1077.81 411.373 1077.81 418V440C1077.81 446.627 1083.18 452 1089.81 452H1112.28C1118.91 452 1124.28 457.373 1124.28 464V487C1124.28 493.627 1118.91 499 1112.28 499H1089.81C1083.18 499 1077.81 493.627 1077.81 487V465C1077.81 458.373 1072.44 453 1065.81 453H1043.34C1036.71 453 1031.34 447.627 1031.34 441V418C1031.34 411.373 1036.71 406 1043.34 406H1065.81ZM1077.81 556C1077.81 549.373 1083.18 544 1089.81 544H1112.28C1118.91 544 1124.28 549.373 1124.28 556V579C1124.28 585.627 1118.91 591 1112.28 591H1089.81C1083.18 591 1077.81 585.627 1077.81 579V556ZM576.48 649C576.48 642.373 581.853 637 588.48 637H610.955C617.582 637 622.955 642.373 622.955 649V672C622.955 678.627 617.582 684 610.955 684H588.48C581.853 684 576.48 689.373 576.48 696V717C576.48 723.627 581.853 729 588.48 729H610.955C617.582 729 622.955 734.373 622.955 741V764C622.955 770.627 617.582 776 610.955 776H588.48C581.853 776 576.48 781.373 576.48 788V808C576.48 814.627 581.853 820 588.48 820H610.955C617.582 820 622.955 825.373 622.955 832V855C622.955 861.627 617.582 867 610.955 867H588.48C581.853 867 576.48 861.627 576.48 855V834C576.48 827.373 571.108 822 564.48 822H542.006C535.378 822 530.006 816.627 530.006 810V788C530.006 781.373 524.633 776 518.006 776H496.52C489.893 776 484.52 781.373 484.52 788V811C484.52 817.627 479.148 823 472.52 823H450.046C443.418 823 438.046 817.627 438.046 811V788C438.046 781.373 443.418 776 450.046 776H471.531C478.159 776 483.531 770.627 483.531 764V741C483.531 734.373 478.159 729 471.531 729H450.046C443.418 729 438.046 723.627 438.046 717V694C438.046 687.373 443.418 682 450.046 682H472.52C479.148 682 484.52 687.373 484.52 694V717C484.52 723.627 489.893 729 496.52 729H518.006C524.633 729 530.006 723.627 530.006 717V695C530.006 688.373 535.378 683 542.006 683H564.48C571.108 683 576.48 677.627 576.48 671V649ZM694.015 820C700.643 820 706.015 825.373 706.015 832V855C706.015 861.627 700.643 867 694.015 867H671.541C664.914 867 659.541 861.627 659.541 855V832C659.541 825.373 664.914 820 671.541 820H694.015ZM857.438 637C850.811 637 845.438 642.373 845.438 649V671C845.438 677.627 840.066 683 833.438 683H810.964C804.337 683 798.964 688.373 798.964 695V717C798.964 723.627 793.591 729 786.964 729H765.478C758.851 729 753.478 723.627 753.478 717V694C753.478 687.373 748.106 682 741.478 682H719.004C712.377 682 707.004 687.373 707.004 694V717C707.004 723.627 712.376 729 719.004 729H740.49C747.117 729 752.49 734.373 752.49 741V764C752.49 770.627 757.862 776 764.49 776H786.964C793.591 776 798.964 781.373 798.964 788V810C798.964 816.627 804.337 822 810.964 822H833.438C840.066 822 845.438 816.627 845.438 810V788C845.438 781.373 850.811 776 857.438 776H879.913C886.54 776 891.913 770.627 891.913 764V741C891.913 734.373 886.54 729 879.913 729H857.438C850.811 729 845.438 723.627 845.438 717V696C845.438 689.373 850.811 684 857.438 684H879.913C886.54 684 891.913 678.627 891.913 672V649C891.913 642.373 886.54 637 879.913 637H857.438ZM1138.26 637C1131.64 637 1126.26 642.373 1126.26 649V671C1126.26 677.627 1120.89 683 1114.26 683H1091.79C1085.16 683 1079.79 688.373 1079.79 695V717C1079.79 723.627 1074.42 729 1067.79 729H1046.3C1039.68 729 1034.3 723.627 1034.3 717V694C1034.3 687.373 1028.93 682 1022.3 682H999.828C993.201 682 987.828 687.373 987.828 694V717C987.828 723.627 993.201 729 999.828 729H1021.31C1027.94 729 1033.31 734.373 1033.31 741V764C1033.31 770.627 1038.69 776 1045.31 776H1067.79C1074.42 776 1079.79 781.373 1079.79 788V808C1079.79 814.627 1074.42 820 1067.79 820H1046.3C1039.68 820 1034.3 825.373 1034.3 832V855C1034.3 861.627 1039.68 867 1046.3 867H1068.78C1075.4 867 1080.78 861.627 1080.78 855V834C1080.78 827.373 1086.15 822 1092.78 822H1114.26C1120.89 822 1126.26 816.627 1126.26 810V788C1126.26 781.373 1131.64 776 1138.26 776H1160.74C1167.36 776 1172.74 770.627 1172.74 764V741C1172.74 734.373 1167.36 729 1160.74 729H1138.26C1131.64 729 1126.26 723.627 1126.26 717V696C1126.26 689.373 1131.64 684 1138.26 684H1160.74C1167.36 684 1172.74 678.627 1172.74 672V649C1172.74 642.373 1167.36 637 1160.74 637H1138.26ZM1300.29 817C1300.29 823.627 1294.92 829 1288.29 829H1272.74C1266.11 829 1260.74 834.373 1260.74 841V855C1260.74 861.627 1255.37 867 1248.74 867H1226.27C1219.64 867 1214.27 861.627 1214.27 855V832C1214.27 825.373 1219.64 820 1226.27 820H1241.82C1248.45 820 1253.82 814.627 1253.82 808V794C1253.82 787.373 1259.19 782 1265.82 782H1288.29C1294.92 782 1300.29 787.373 1300.29 794V817ZM926.387 820C933.015 820 938.387 825.373 938.387 832V855C938.387 861.627 933.015 867 926.387 867H903.913C897.286 867 891.913 861.627 891.913 855V832C891.913 825.373 897.286 820 903.913 820H926.387ZM1412.16 637C1405.54 637 1400.16 642.373 1400.16 649V671C1400.16 677.627 1394.79 683 1388.16 683H1365.69C1359.06 683 1353.69 688.373 1353.69 695V717C1353.69 723.627 1348.32 729 1341.69 729H1320.2C1313.58 729 1308.2 723.627 1308.2 717V694C1308.2 687.373 1302.83 682 1296.2 682H1273.73C1267.1 682 1261.73 687.373 1261.73 694V717C1261.73 723.627 1267.1 729 1273.73 729H1295.22C1301.84 729 1307.22 734.373 1307.22 741V764C1307.22 770.627 1312.59 776 1319.22 776H1341.69C1348.32 776 1353.69 781.373 1353.69 788V810C1353.69 816.627 1359.06 822 1365.69 822H1388.16C1394.79 822 1400.16 816.627 1400.16 810V788C1400.16 781.373 1405.54 776 1412.16 776H1434.64C1441.27 776 1446.64 770.627 1446.64 764V741C1446.64 734.373 1441.27 729 1434.64 729H1412.16C1405.54 729 1400.16 723.627 1400.16 717V696C1400.16 689.373 1405.54 684 1412.16 684H1434.64C1441.27 684 1446.64 678.627 1446.64 672V649C1446.64 642.373 1441.27 637 1434.64 637H1412.16ZM265.003 694C265.003 687.373 259.63 682 253.003 682H230.529C223.901 682 218.529 687.373 218.529 694V717C218.529 723.627 223.901 729 230.529 729H253.003C259.63 729 265.003 723.627 265.003 717V694Z" fill="black"/>
<path d="M0 518C0 511.373 5.37259 506 12 506H34.4744C41.1018 506 46.4744 500.627 46.4744 494V475C46.4744 468.373 41.1018 463 34.4744 463H12C5.37258 463 0 457.627 0 451V518Z" fill="black"/>
<path d="M127.423 688C134.051 688 139.423 682.627 139.423 676V655C139.423 648.373 134.051 643 127.423 643H104.949C98.3214 643 92.9488 648.373 92.9488 655V676C92.9488 682.627 98.3214 688 104.949 688H127.423Z" fill="black"/>
</svg>
