<svg width="141" height="231" viewBox="0 0 141 231" fill="none" xmlns="http://www.w3.org/2000/svg">
<path fill-rule="evenodd" clip-rule="evenodd" d="M94 12C94 5.37258 99.3726 0 106 0H129C135.627 0 141 5.37258 141 12V35C141 41.6274 135.627 47 129 47H106C99.3726 47 94 52.3726 94 59V80C94 86.6274 99.3726 92 106 92H129C135.627 92 141 97.3726 141 104V127C141 133.627 135.627 139 129 139H106C99.3726 139 94 144.373 94 151V173C94 179.627 88.6274 185 82 185H59C52.3726 185 47 190.373 47 197V219C47 225.627 41.6274 231 35 231H12C5.37258 231 0 225.627 0 219V196C0 189.373 5.37258 184 12 184H35C41.6274 184 47 178.627 47 172V151C47 144.373 41.6274 139 35 139H12C5.37258 139 0 133.627 0 127V104C0 97.3726 5.37258 92 12 92H35C41.6274 92 47 86.6274 47 80V58C47 51.3726 52.3726 46 59 46H82C88.6274 46 94 40.6274 94 34V12ZM82 138C88.6274 138 94 132.627 94 126V105C94 98.3726 88.6274 93 82 93H59C52.3726 93 47 98.3726 47 105V126C47 132.627 52.3726 138 59 138H82Z" fill="black"/>
</svg>
