<svg width="61" height="61" viewBox="0 0 61 61" fill="none" xmlns="http://www.w3.org/2000/svg">
<path fill-rule="evenodd" clip-rule="evenodd" d="M24.3333 3C24.3333 1.34315 25.6765 0 27.3333 0H33.6667C35.3235 0 36.6667 1.34314 36.6667 3V9.33333C36.6667 10.9902 35.3235 12.3333 33.6667 12.3333H27.3333C25.6765 12.3333 24.3333 10.9902 24.3333 9.33334V3ZM0 33.3333C0 34.9902 1.34315 36.3333 3 36.3333H9C10.6569 36.3333 12 37.6765 12 39.3333V45.3333C12 46.9902 13.3431 48.3333 15 48.3333H21C22.6569 48.3333 24 49.6765 24 51.3333V57.3333C24 58.9902 25.3431 60.3333 27 60.3333H33.3333C34.9902 60.3333 36.3333 58.9902 36.3333 57.3333V51.3333C36.3333 49.6765 37.6765 48.3333 39.3333 48.3333H45.3333C46.9902 48.3333 48.3333 46.9902 48.3333 45.3333V39.3333C48.3333 37.6765 49.6765 36.3333 51.3333 36.3333H57.3333C58.9902 36.3333 60.3333 34.9902 60.3333 33.3333V27C60.3333 25.3431 58.9902 24 57.3333 24H51C49.3431 24 48 25.3431 48 27V33C48 34.6569 46.6569 36 45 36H39.6667C38.0098 36 36.6667 34.6569 36.6667 33V27.1418C36.6667 25.485 35.3235 24.1418 33.6667 24.1418H27.3333C25.6765 24.1418 24.3333 25.485 24.3333 27.1418V33C24.3333 34.6569 22.9902 36 21.3333 36H15.3333C13.6765 36 12.3333 34.6569 12.3333 33V27C12.3333 25.3431 10.9902 24 9.33334 24H3C1.34315 24 0 25.3431 0 27V33.3333ZM33 36.4752C34.6569 36.4752 36 37.8183 36 39.4752V45C36 46.6569 34.6569 48 33 48H27.3333C25.6765 48 24.3333 46.6569 24.3333 45V39.4752C24.3333 37.8183 25.6765 36.4752 27.3333 36.4752H33Z" fill="#DBFF00"/>
</svg>
