<svg width="61" height="85" viewBox="0 0 61 85" fill="none" xmlns="http://www.w3.org/2000/svg">
<path fill-rule="evenodd" clip-rule="evenodd" d="M36.6663 3C36.6663 1.34315 35.3232 0 33.6663 0H27.333C25.6762 0 24.333 1.34315 24.333 3V9C24.333 10.6569 22.9899 12 21.333 12H15C13.3431 12 12 13.3431 12 15V21C12 22.6569 10.6569 24 9 24H3C1.34315 24 0 25.3431 0 27V33.3333C0 34.9902 1.34314 36.3333 3 36.3333H9.33333C10.9902 36.3333 12.3333 34.9902 12.3333 33.3333V27.3333C12.3333 25.6765 13.6765 24.3333 15.3333 24.3333H21.3333C22.9902 24.3333 24.3333 22.9902 24.3333 21.3333V15.3333C24.3333 13.6765 25.6765 12.3333 27.3333 12.3333H33C34.6569 12.3333 36 13.6765 36 15.3333V21.3333C36 22.9902 37.3431 24.3333 39 24.3333H45C46.6569 24.3333 48 25.6765 48 27.3333V33C48 34.6569 46.6569 36 45 36H39C37.3431 36 36 37.3431 36 39V45C36 46.6569 34.6569 48 33 48H27C25.3431 48 24 49.3431 24 51V57.3333C24 58.9902 25.3431 60.3333 27 60.3333H33.3333C34.9902 60.3333 36.3333 58.9902 36.3333 57.3333V51.3333C36.3333 49.6765 37.6765 48.3333 39.3333 48.3333H45.3333C46.9902 48.3333 48.3333 46.9902 48.3333 45.3333V39.3333C48.3333 37.6765 49.6765 36.3333 51.3333 36.3333H57.3333C58.9902 36.3333 60.3333 34.9902 60.3333 33.3333V27C60.3333 25.3431 58.9902 24 57.3333 24H51.3333C49.6765 24 48.3333 22.6569 48.3333 21V15C48.3333 13.3431 46.9902 12 45.3333 12H39.6663C38.0095 12 36.6663 10.6569 36.6663 9V3ZM36.3333 75C36.3333 73.3431 34.9902 72 33.3333 72H27C25.3431 72 24 73.3431 24 75V81.3333C24 82.9902 25.3431 84.3333 27 84.3333H33.3333C34.9902 84.3333 36.3333 82.9902 36.3333 81.3333V75Z" fill="#DBFF00"/>
</svg>
