<svg width="62" height="62" viewBox="0 0 62 62" fill="none" xmlns="http://www.w3.org/2000/svg">
<path fill-rule="evenodd" clip-rule="evenodd" d="M19.2995 2.30103C35.1494 -4.16076 53.2368 3.44991 59.6986 19.2998C61.9271 24.766 62.4821 30.5041 61.6002 35.9383C61.4233 37.0286 60.396 37.769 59.3056 37.5921C58.2153 37.4151 57.4749 36.3878 57.6518 35.2975C58.4193 30.5684 57.9377 25.576 55.9946 20.8099C50.3668 7.00565 34.6138 0.377234 20.8095 6.00504C7.00523 11.6328 0.37674 27.3857 6.00453 41.1901C7.46727 44.778 9.61402 47.8812 12.2328 50.4104C15.4428 43.2443 22.6361 38.2498 31.0002 38.2498C39.3642 38.2498 46.5576 43.2443 49.7676 50.4104C51.1698 49.0536 52.4101 47.5571 53.4751 45.9529C54.086 45.0326 55.3273 44.7819 56.2475 45.3928C57.1678 46.0037 57.4185 47.245 56.8076 48.1652C53.4859 53.1686 48.6764 57.2624 42.6996 59.6991C26.8497 66.1608 8.7623 58.5502 2.30052 42.7001C-4.16126 26.8501 3.44951 8.76282 19.2995 2.30103ZM46.5385 53.0788C44.2081 46.756 38.128 42.2498 31.0002 42.2498C23.8732 42.2498 17.7937 46.7549 15.4627 53.0766C22.728 58.1794 32.3576 59.5957 41.1896 55.995C43.1176 55.209 44.905 54.226 46.5385 53.0788ZM31.0003 16.4917C27.6837 16.4917 24.9949 19.1804 24.9949 22.4972C24.9949 25.814 27.6837 28.5027 31.0003 28.5027C34.3169 28.5027 37.0056 25.814 37.0056 22.4972C37.0056 19.1804 34.3169 16.4917 31.0003 16.4917ZM20.9949 22.4972C20.9949 16.9713 25.4744 12.4917 31.0003 12.4917C36.5261 12.4917 41.0056 16.9713 41.0056 22.4972C41.0056 28.0231 36.5261 32.5027 31.0003 32.5027C25.4744 32.5027 20.9949 28.0231 20.9949 22.4972Z" fill="#DBFF00"/>
</svg>
