<svg width="64" height="58" viewBox="0 0 64 58" fill="none" xmlns="http://www.w3.org/2000/svg">
<path d="M43.1403 57.7026H20.4528C17.4704 57.7026 13.9683 55.6813 12.4792 53.0991L1.13541 33.4558C-0.378469 30.8323 -0.378469 26.8723 1.13541 24.2467L12.4812 4.6035C13.9703 2.02125 17.4725 0 20.4548 0H43.1403C46.1227 0 49.6248 2.02125 51.1139 4.6035L62.4577 24.2467C63.9715 26.8702 63.9715 30.8303 62.4577 33.4558L51.1118 53.0991C49.6248 55.6813 46.1206 57.7026 43.1403 57.7026ZM20.4528 4.12294C18.9162 4.12294 16.8187 5.33362 16.0514 6.66394L4.70559 26.3072C3.93834 27.6375 3.93834 30.0609 4.70559 31.3913L16.0493 51.0345C16.8187 52.3669 18.9162 53.5755 20.4507 53.5755H43.1403C44.6768 53.5755 46.7744 52.3648 47.5417 51.0345L58.8875 31.3913C59.6547 30.0609 59.6547 27.6375 58.8875 26.3072L47.5437 6.66394C46.7744 5.33156 44.6768 4.12294 43.1423 4.12294H20.4528ZM31.7965 41.052C25.0666 41.052 19.5927 35.5781 19.5927 28.8503C19.5927 22.1224 25.0666 16.6485 31.7965 16.6485C38.5265 16.6485 44.0003 22.1224 44.0003 28.8503C44.0003 35.5781 38.5265 41.052 31.7965 41.052ZM31.7965 20.7735C27.3415 20.7735 23.7177 24.3973 23.7177 28.8503C23.7177 33.3032 27.3415 36.927 31.7965 36.927C36.2515 36.927 39.8753 33.3032 39.8753 28.8503C39.8753 24.3973 36.2515 20.7735 31.7965 20.7735Z" fill="#DBFF00"/>
</svg>
