<svg width="63" height="63" viewBox="0 0 63 63" fill="none" xmlns="http://www.w3.org/2000/svg">
<path fill-rule="evenodd" clip-rule="evenodd" d="M0 13C0 5.8203 5.8203 0 13 0H50C57.1797 0 63 5.8203 63 13V50C63 57.1797 57.1797 63 50 63H13C5.8203 63 0 57.1797 0 50V13ZM13 4H50C54.9706 4 59 8.02944 59 13V50C59 51.4994 58.6334 52.9131 57.9848 54.1564L22.8284 19L36 19C37.1046 19 38 18.1046 38 17C38 15.8954 37.1046 15 36 15L18 15C16.8954 15 16 15.8954 16 17L16 35C16 36.1046 16.8954 37 18 37C19.1046 37 20 36.1046 20 35L20 21.8284L55.3841 57.2126C53.8827 58.3352 52.019 59 50 59H13C8.02944 59 4 54.9706 4 50V13C4 8.02944 8.02944 4 13 4Z" fill="#DBFF00"/>
</svg>
