<svg width="54" height="56" viewBox="0 0 54 56" fill="none" xmlns="http://www.w3.org/2000/svg">
<path d="M13.1753 10.5625C13.1753 18.1187 19.1815 24.125 26.7378 24.125C34.294 24.125 40.3003 18.1187 40.3003 10.5625C40.3003 9.4 39.5253 8.625 38.3628 8.625C37.2003 8.625 36.4253 9.4 36.4253 10.5625C36.4253 15.9875 32.1628 20.25 26.7378 20.25C21.3128 20.25 17.0503 15.9875 17.0503 10.5625C17.0503 9.4 16.2753 8.625 15.1128 8.625C13.9503 8.625 13.1753 9.4 13.1753 10.5625Z" fill="#DBFF00"/>
<path fill-rule="evenodd" clip-rule="evenodd" d="M11.6255 55.125H42.238C45.338 55.125 48.2442 53.7687 50.3755 51.4438C52.5067 49.1188 53.6692 46.2125 53.4755 43.1125L52.313 12.1125C52.1192 5.71875 46.888 0.875 40.688 0.875H12.788C6.58799 0.875 1.35674 5.71875 1.16299 12.1125L0.000488281 43.1125V43.5C0.000488281 49.8937 5.23174 55.125 11.6255 55.125ZM5.03799 12.1125C5.23174 8.04375 8.52549 4.75 12.788 4.75H40.8817C45.1442 4.75 48.438 7.85 48.6317 12.1125L49.7942 43.1125C49.7942 45.2437 49.0192 47.1813 47.663 48.7313C46.3067 50.2812 44.3692 51.25 42.238 51.25H11.6255C7.36299 51.25 3.87549 47.7625 3.87549 43.5L5.03799 12.1125Z" fill="#DBFF00"/>
</svg>
