<svg width="73" height="66" viewBox="0 0 73 66" fill="none" xmlns="http://www.w3.org/2000/svg">
<path fill-rule="evenodd" clip-rule="evenodd" d="M60 13.6203C60 12.8084 59.5141 12.0768 58.7702 11.7682L30.7538 0.150172C30.2708 -0.0500573 29.7292 -0.0500573 29.2462 0.150172L1.22981 11.7682C0.485851 12.0767 0 12.8084 0 13.6203V50.3797C0 51.1916 0.485727 51.9232 1.22981 52.2318L29.2462 63.8498C29.724 64.0479 30.2604 64.0528 30.7506 63.8503C30.751 63.8512 31.0456 63.729 40.7288 59.7134L41.9876 59.1914C40.7235 58.3712 39.5719 57.3923 38.561 56.2829L31.9836 59.0104V26.7489L56.0329 16.776V27.5927C57.4321 27.9669 58.7622 28.5102 60 29.1993V13.6203ZM30 23.2421L19.677 18.9613L41.9861 9.13746L52.9995 13.7046L30 23.2421ZM3.96714 16.776L12.8735 20.4693V30.8892C12.8735 31.995 13.7616 32.8915 14.8571 32.8915C15.9525 32.8915 16.8406 31.995 16.8406 30.8892V22.1144L28.0164 26.7489V59.0104L3.96714 49.0375V16.776ZM30 4.1669L36.8763 7.01841L14.5672 16.8423L7.00051 13.7044L30 4.1669Z" fill="#DBFF00"/>
<path fill-rule="evenodd" clip-rule="evenodd" d="M60.3708 55.9118C57.8323 57.8891 54.7066 58.9626 51.4889 58.9626C48.269 58.9642 45.1405 57.8927 42.5978 55.9174C36.282 51.011 35.1395 41.9137 40.0459 35.5978C44.9522 29.282 54.0495 28.1395 60.3653 33.0459C66.6811 37.9522 67.8236 47.0496 62.9173 53.3654L72.4944 62.9425C73.1685 63.6404 73.1685 64.7468 72.4944 65.4447C71.8035 66.1601 70.6635 66.1799 69.948 65.489L60.3708 55.9118ZM59.1843 36.788C54.9342 32.5381 48.0437 32.5381 43.7937 36.7882L43.7377 36.8442C39.5187 41.0941 39.5438 47.9596 43.7937 52.1786C48.0438 56.4285 54.9345 56.4286 59.1844 52.1786C63.4344 47.9285 63.4343 41.038 59.1843 36.788Z" fill="#DBFF00"/>
</svg>
