<svg width="57" height="57" viewBox="0 0 57 57" fill="none" xmlns="http://www.w3.org/2000/svg">
<path d="M44.3139 54.546C48.9361 52.6244 52.6236 48.885 54.5452 44.3146C55.2204 42.6008 55.6359 40.6791 55.8436 37.9785C55.9994 35.5375 55.9994 32.4733 55.9994 28.5781C55.9994 26.2929 55.9994 24.4232 55.9994 22.7613C55.9994 21.7745 55.1684 20.9955 54.1816 20.9955C53.1949 20.9955 52.3639 21.8264 52.4158 22.8132C52.4158 24.4232 52.4158 26.2929 52.4158 28.4742C52.4158 32.5252 52.4158 35.4336 52.26 37.7188C52.1042 40.004 51.7926 41.562 51.2732 42.9124C49.7152 46.7037 46.7548 49.6121 43.0155 51.1702C41.6651 51.7415 40.159 52.0011 37.8219 52.1569C35.5367 52.3128 32.6283 52.3128 28.5773 52.3128C24.5263 52.3128 21.6179 52.3128 19.3327 52.1569C17.0476 52.0011 15.4895 51.6895 14.1392 51.1702C10.3478 49.6121 7.43945 46.6517 5.88137 42.9124C5.31008 41.614 5.0504 40.0559 4.89459 37.7188C4.73878 35.4336 4.73878 32.5252 4.73878 28.4742C4.73878 24.4232 4.73878 21.5148 4.89459 19.2297C5.0504 16.9445 5.36201 15.3864 5.88137 14.0361C7.43945 10.2448 10.3998 7.33636 14.1392 5.77829C15.4376 5.20699 16.9956 4.94732 19.3327 4.79151C21.6698 4.6357 24.7341 4.6357 28.5773 4.6357C36.1599 4.6357 39.6396 4.6357 42.2884 5.51861C42.7558 5.67442 43.2232 5.62248 43.6906 5.41474C44.1061 5.20699 44.4177 4.84344 44.5735 4.37602C44.7293 3.9086 44.6774 3.44118 44.4697 2.97376C44.2619 2.55827 43.8984 2.19472 43.4309 2.09085C40.1071 1.0002 35.7964 1.0002 29.2005 1.0002H28.5773C24.5783 1.0002 21.514 1.0002 19.0731 1.156C16.3724 1.36375 14.4508 1.7273 12.7369 2.4544C8.01074 4.37602 4.37523 8.01153 2.45361 12.6857C1.72651 14.3996 1.36296 16.2693 1.20715 19.0219C1.05134 21.4629 1.05134 24.5271 1.05134 28.4223C1.05134 32.5252 1.05134 35.5894 1.20715 38.0304C1.41489 40.7311 1.77844 42.6527 2.45361 44.3666C4.37523 48.9889 8.11461 52.7282 12.685 54.5979C14.3469 55.2731 16.3205 55.6886 19.0211 55.8963C21.4621 56.0521 24.5263 56.0521 28.4215 56.0521C32.5244 56.0521 35.5886 56.0521 38.0296 55.8963C40.7303 55.6886 42.6519 55.325 44.3658 54.5979L44.3139 54.546Z" fill="#DBFF00"/>
<path fill-rule="evenodd" clip-rule="evenodd" d="M54.5452 44.3146C52.665 48.7865 49.0942 52.4628 44.6114 54.4192C44.5722 54.4364 44.5329 54.4533 44.4935 54.4702C44.4422 54.4922 44.3908 54.5139 44.3393 54.5354C44.3308 54.5389 44.3223 54.5425 44.3139 54.546L44.3658 54.5979C44.3572 54.6016 44.3486 54.6052 44.34 54.6088C44.2896 54.6301 44.239 54.651 44.1882 54.6717C44.1472 54.6883 44.106 54.7048 44.0647 54.7211C42.4259 55.3668 40.5733 55.7007 38.0296 55.8963C35.5886 56.0521 32.5244 56.0521 28.4215 56.0521C24.5263 56.0521 21.4621 56.0521 19.0211 55.8963C16.3205 55.6886 14.3469 55.2731 12.685 54.5979C8.11461 52.7282 4.37523 48.9889 2.45361 44.3666C1.77844 42.6527 1.41489 40.7311 1.20715 38.0304C1.05134 35.5894 1.05134 32.5252 1.05134 28.4223C1.05134 24.5271 1.05134 21.4629 1.20715 19.0219C1.36296 16.2693 1.72651 14.3996 2.45361 12.6857C4.37523 8.01153 8.01074 4.37602 12.7369 2.4544C14.4508 1.7273 16.3724 1.36375 19.0731 1.156C21.514 1.0002 24.5783 1.0002 28.5773 1.0002H29.2005C35.7964 1.0002 40.1071 1.0002 43.4309 2.09085C43.8984 2.19472 44.2619 2.55827 44.4697 2.97376C44.6774 3.44118 44.7293 3.9086 44.5735 4.37602C44.4177 4.84344 44.1061 5.20699 43.6906 5.41474C43.2232 5.62248 42.7558 5.67442 42.2884 5.51861C39.6396 4.6357 36.1599 4.6357 28.5773 4.6357C24.7341 4.6357 21.6698 4.6357 19.3327 4.79151C16.9956 4.94732 15.4376 5.20699 14.1392 5.77829C10.3998 7.33636 7.43945 10.2448 5.88137 14.0361C5.36201 15.3864 5.0504 16.9445 4.89459 19.2297C4.73878 21.5148 4.73878 24.4232 4.73878 28.4742C4.73878 32.5252 4.73878 35.4336 4.89459 37.7188C5.0504 40.0559 5.31008 41.614 5.88137 42.9124C7.43945 46.6517 10.3478 49.6121 14.1392 51.1702C15.4895 51.6895 17.0476 52.0011 19.3327 52.1569C21.6179 52.3128 24.5263 52.3128 28.5773 52.3128C32.6283 52.3128 35.5367 52.3128 37.8219 52.1569C40.159 52.0011 41.6651 51.7415 43.0155 51.1702C46.7548 49.6121 49.7152 46.7037 51.2732 42.9124C51.7926 41.562 52.1042 40.004 52.26 37.7188C52.4158 35.4336 52.4158 32.5252 52.4158 28.4742V22.8132C52.3639 21.8264 53.1949 20.9955 54.1816 20.9955C55.1684 20.9955 55.9994 21.7745 55.9994 22.7613V28.5781C55.9994 32.4733 55.9994 35.5375 55.8436 37.9785C55.6359 40.6791 55.2204 42.6008 54.5452 44.3146ZM52.1158 22.8208C52.0593 21.6566 53.0353 20.6955 54.1816 20.6955C55.3227 20.6955 56.2994 21.5976 56.2994 22.7613V28.5886C56.2994 32.4751 56.2994 35.5471 56.143 37.9976L56.1427 38.0015C55.9334 40.7227 55.5134 42.6754 54.8243 44.4246L54.8218 44.431C52.9274 48.9366 49.3434 52.6474 44.839 54.6468L44.8925 54.7004L44.483 54.8741C42.7259 55.6195 40.7674 55.9866 38.0526 56.1954L38.0487 56.1957C35.5981 56.3521 32.526 56.3521 28.4323 56.3521H28.4113C24.5247 56.3521 21.4526 56.3521 19.002 56.1957L18.9981 56.1955C16.2789 55.9863 14.2722 55.5666 12.572 54.8759C7.92663 52.9755 4.12841 49.1767 2.17659 44.4817L2.17444 44.4766C1.4839 42.7237 1.11692 40.7689 0.908034 38.0534L0.907734 38.0495C0.751343 35.599 0.751343 32.5269 0.751343 28.4335V28.4118C0.751343 24.5259 0.751343 21.4542 0.907691 19.0039C1.06455 16.2339 1.43171 14.327 2.17679 12.5701C4.1289 7.82289 7.82258 4.12932 12.6218 2.17735C14.3783 1.43253 16.3364 1.06563 19.0501 0.856886L19.0539 0.856587C21.5045 0.700195 24.5765 0.700195 28.5665 0.700195L29.2642 0.700195C35.7948 0.700184 40.1435 0.700176 43.5111 1.80142C44.0847 1.93486 44.5053 2.3743 44.738 2.83959L44.7441 2.85179C44.9759 3.37331 45.0421 3.91889 44.8581 4.47089C44.6784 5.01011 44.3148 5.43804 43.8248 5.68307L43.8126 5.68916C43.2911 5.92095 42.7455 5.98721 42.1935 5.80321C40.9067 5.37429 39.4058 5.15548 37.2677 5.04567C35.1283 4.93579 32.3719 4.9357 28.5773 4.9357C24.7299 4.9357 21.6775 4.93586 19.3527 5.09084C17.023 5.24615 15.5085 5.50355 14.26 6.05288L14.2546 6.05526C10.5878 7.58307 7.68752 10.4327 6.16015 14.147C5.65592 15.4591 5.34837 16.9844 5.1939 19.2501C5.03895 21.5226 5.03878 24.4189 5.03878 28.4742C5.03878 32.5295 5.03895 35.4258 5.1939 37.6984C5.34921 40.0281 5.60663 41.5431 6.15597 42.7916L6.15835 42.797C7.68616 46.4637 10.5358 49.364 14.25 50.8914C15.5622 51.3956 17.0875 51.7032 19.3531 51.8576C21.6257 52.0126 24.522 52.0128 28.5773 52.0128C32.6326 52.0128 35.5289 52.0126 37.8015 51.8576C40.1282 51.7025 41.5948 51.4455 42.8986 50.8939L42.9001 50.8932C46.5668 49.3654 49.4671 46.5157 50.9945 42.8015C51.4987 41.4893 51.8062 39.964 51.9607 37.6984C52.1157 35.4258 52.1158 32.5295 52.1158 28.4742V22.8208Z" fill="#DBFF00"/>
<path d="M52.6235 8.73866C42.7038 14.5035 34.5498 22.8652 28.8888 32.8369L28.2137 34.0314L18.5536 24.3713C18.1901 24.0078 17.7226 23.852 17.2552 23.852C16.7878 23.852 16.3204 24.0078 15.9568 24.3713C15.2297 25.0984 15.2297 26.241 15.9568 26.9162L27.3827 38.3421C27.7982 38.7576 28.4214 38.9653 28.9408 38.8614C29.5121 38.7576 30.0314 38.394 30.2911 37.8746C35.5886 26.9681 43.8983 17.9832 54.3893 11.8548L55.0125 11.4913C55.8954 10.9719 56.1551 9.88125 55.6877 8.99834C55.1683 8.11543 54.0777 7.85576 53.1948 8.32318L52.5716 8.68673L52.6235 8.73866Z" fill="#DBFF00"/>
<path fill-rule="evenodd" clip-rule="evenodd" d="M53.1948 8.32318C54.0777 7.85576 55.1683 8.11543 55.6877 8.99834C56.1551 9.88125 55.8954 10.9719 55.0125 11.4913L54.3893 11.8548C43.8983 17.9832 35.5886 26.9681 30.2911 37.8746C30.0314 38.394 29.5121 38.7576 28.9408 38.8614C28.4214 38.9653 27.7982 38.7576 27.3827 38.3421L15.9568 26.9162C15.2297 26.241 15.2297 25.0984 15.9568 24.3713C16.3204 24.0078 16.7878 23.852 17.2552 23.852C17.7226 23.852 18.1901 24.0078 18.5536 24.3713L28.2137 34.0314L28.8888 32.8369C34.4988 22.9551 42.557 14.6544 52.3557 8.89516C52.3617 8.89165 52.3677 8.88814 52.3736 8.88463C52.4514 8.83895 52.5293 8.79342 52.6073 8.74806C52.6127 8.74493 52.6181 8.74179 52.6235 8.73866L52.5716 8.68673L53.1948 8.32318ZM52.1366 8.67602L52.0843 8.62367L53.0543 8.05782C54.0687 7.52079 55.3398 7.81516 55.9463 8.84624L55.9531 8.85784C56.4901 9.87222 56.1957 11.1433 55.1646 11.7498L55.1637 11.7504L54.5406 12.1139C44.101 18.2122 35.8325 27.1526 30.561 38.0057L30.5594 38.0088C30.2544 38.6189 29.6521 39.0362 28.9969 39.1561C28.3678 39.2808 27.6472 39.0308 27.1706 38.5542L15.7485 27.1321C14.8933 26.3336 14.9063 24.9976 15.7447 24.1592C16.1726 23.7313 16.7205 23.552 17.2552 23.552C17.7899 23.552 18.3378 23.7313 18.7657 24.1592L28.1467 33.5402L28.6277 32.6893C34.25 22.7856 42.3215 14.4611 52.1366 8.67602Z" fill="#DBFF00"/>
</svg>
