<svg width="60" height="64" viewBox="0 0 60 64" fill="none" xmlns="http://www.w3.org/2000/svg">
<path d="M60 13.6203C60 12.8084 59.5141 12.0768 58.7702 11.7682L30.7538 0.150172C30.2708 -0.0500573 29.7292 -0.0500573 29.2462 0.150172L1.22981 11.7682C0.485851 12.0767 0 12.8084 0 13.6203V50.3797C0 51.1916 0.485727 51.9232 1.22981 52.2318L29.2462 63.8498C29.724 64.0479 30.2611 64.0522 30.7513 63.8497C30.7752 63.8417 29.7145 64.2808 58.7702 52.2318C59.5143 51.9233 60 51.1916 60 50.3797V13.6203ZM30 23.2421L19.677 18.9613L41.9861 9.13746L52.9995 13.7046L30 23.2421ZM3.96714 16.776L12.8735 20.4693V30.8892C12.8735 31.995 13.7616 32.8915 14.8571 32.8915C15.9525 32.8915 16.8406 31.995 16.8406 30.8892V22.1144L28.0164 26.7489V59.0104L3.96714 49.0375V16.776ZM30 4.1669L36.8763 7.01841L14.5672 16.8423L7.00051 13.7044L30 4.1669ZM31.9836 26.7489L56.0329 16.776V49.0375L31.9836 59.0104V26.7489Z" fill="black"/>
</svg>
