<svg width="62" height="62" viewBox="0 0 62 62" fill="none" xmlns="http://www.w3.org/2000/svg">
<path fill-rule="evenodd" clip-rule="evenodd" d="M40.8442 39.7723L40.8333 39.7364L32.8508 20.7456L32.8496 20.7425C32.5423 19.9972 31.8243 19.5035 31.0184 19.4832L31.0074 19.4829L30.9963 19.483C30.1743 19.487 29.4354 19.985 29.1231 20.7454L21.3094 39.7066L21.3086 39.7086C20.882 40.7527 21.3825 41.9448 22.4265 42.3714C23.4704 42.798 24.6627 42.2969 25.0894 41.2533L31.0027 26.8558L32.9755 31.6207H30.2662V35.6927H34.6595L37.0842 41.294L37.0978 41.3198C37.6248 42.313 38.8572 42.6911 39.8506 42.1642C40.7117 41.7076 41.1283 40.7047 40.8442 39.7723Z" fill="#DBFF00"/>
<path fill-rule="evenodd" clip-rule="evenodd" d="M31.0013 0H31C13.8792 0 0 13.8792 0 30.9999C0 48.1207 13.8792 62 31 62C48.1208 62 62 48.1207 62 30.9999L62 30.9987C61.9707 13.8908 48.1093 0.029356 31.0013 0ZM30.9993 57.9279L30.2663 57.9286V57.9441C15.7336 57.5554 4.07211 45.6526 4.07211 31.026C4.07211 16.1541 16.1282 4.09814 31 4.09814C45.8617 4.09814 57.9135 16.1383 57.9279 30.9999C57.9136 45.8661 45.8655 57.914 30.9993 57.9279ZM30.9998 58.6877C15.7227 58.6877 3.3382 46.3032 3.3382 31.0261C3.3382 46.0579 15.3283 58.2891 30.2663 58.6781C30.51 58.6845 30.7545 58.6877 30.9998 58.6877Z" fill="#DBFF00"/>
</svg>
